Klei-Thin.ufo
<glyph name="ampersand" format="1">
  <advance width="792"/>
  <unicode hex="0026"/>
  <outline>
    <contour>
      <point x="654" y="-16" type="curve" smooth="yes"/>
      <point x="703" y="-16"/>
      <point x="750" y="27"/>
      <point x="771" y="60" type="curve"/>
      <point x="760" y="74" type="line"/>
      <point x="743" y="52"/>
      <point x="703" y="22"/>
      <point x="656" y="22" type="curve" smooth="yes"/>
      <point x="611" y="22"/>
      <point x="563" y="96"/>
      <point x="538" y="139" type="curve" smooth="yes"/>
      <point x="526" y="160"/>
      <point x="513" y="180"/>
      <point x="502" y="196" type="curve"/>
      <point x="520" y="223"/>
      <point x="541" y="250"/>
      <point x="565" y="274" type="curve" smooth="yes"/>
      <point x="578" y="287"/>
      <point x="623" y="325"/>
      <point x="638" y="334" type="curve" smooth="yes"/>
      <point x="648" y="340"/>
      <point x="665" y="342"/>
      <point x="670" y="342" type="curve"/>
      <point x="670" y="357" type="line"/>
      <point x="551" y="357" type="line"/>
      <point x="551" y="342" type="line"/>
      <point x="557" y="342"/>
      <point x="565" y="341"/>
      <point x="570" y="340" type="curve" smooth="yes"/>
      <point x="579" y="338"/>
      <point x="585" y="334"/>
      <point x="585" y="327" type="curve" smooth="yes"/>
      <point x="585" y="324"/>
      <point x="584" y="322"/>
      <point x="582" y="319" type="curve" smooth="yes"/>
      <point x="574" y="310"/>
      <point x="560" y="296"/>
      <point x="552" y="289" type="curve" smooth="yes"/>
      <point x="527" y="268"/>
      <point x="505" y="242"/>
      <point x="486" y="217" type="curve"/>
      <point x="461" y="248"/>
      <point x="423" y="290"/>
      <point x="365" y="348" type="curve" smooth="yes"/>
      <point x="338" y="375"/>
      <point x="305" y="406"/>
      <point x="274" y="435" type="curve"/>
      <point x="339" y="482"/>
      <point x="406" y="537"/>
      <point x="406" y="595" type="curve" smooth="yes"/>
      <point x="406" y="640"/>
      <point x="399" y="735"/>
      <point x="255" y="735" type="curve" smooth="yes"/>
      <point x="154" y="735"/>
      <point x="103" y="643"/>
      <point x="103" y="567" type="curve" smooth="yes"/>
      <point x="103" y="515"/>
      <point x="149" y="458"/>
      <point x="201" y="407" type="curve"/>
      <point x="136" y="358"/>
      <point x="24" y="272"/>
      <point x="24" y="175" type="curve" smooth="yes"/>
      <point x="24" y="73"/>
      <point x="115" y="-10"/>
      <point x="253" y="-10" type="curve" smooth="yes"/>
      <point x="361" y="-10"/>
      <point x="410" y="55"/>
      <point x="460" y="131" type="curve"/>
      <point x="466" y="123"/>
      <point x="477" y="108"/>
      <point x="489" y="90" type="curve" smooth="yes"/>
      <point x="495" y="80"/>
      <point x="501" y="71"/>
      <point x="508" y="61" type="curve" smooth="yes"/>
      <point x="537" y="20"/>
      <point x="571" y="-16"/>
    </contour>
    <contour>
      <point x="263" y="38" type="curve" smooth="yes"/>
      <point x="155" y="38"/>
      <point x="95" y="98"/>
      <point x="95" y="186" type="curve" smooth="yes"/>
      <point x="95" y="266"/>
      <point x="142" y="332"/>
      <point x="216" y="392" type="curve"/>
      <point x="256" y="357"/>
      <point x="297" y="320"/>
      <point x="324" y="292" type="curve" smooth="yes"/>
      <point x="374" y="241"/>
      <point x="411" y="197"/>
      <point x="442" y="155" type="curve"/>
      <point x="398" y="92"/>
      <point x="355" y="40"/>
      <point x="270" y="38" type="curve" smooth="yes"/>
      <point x="268" y="38"/>
      <point x="266" y="38"/>
    </contour>
    <contour>
      <point x="258" y="451" type="curve"/>
      <point x="205" y="504"/>
      <point x="160" y="557"/>
      <point x="160" y="604" type="curve" smooth="yes"/>
      <point x="160" y="656"/>
      <point x="187" y="709"/>
      <point x="259" y="709" type="curve" smooth="yes"/>
      <point x="320" y="709"/>
      <point x="359" y="675"/>
      <point x="359" y="619" type="curve" smooth="yes"/>
      <point x="359" y="575"/>
      <point x="345" y="526"/>
    </contour>
  </outline>
</glyph>
<glyph name="plus" format="1">
  <advance width="406"/>
  <unicode hex="002B"/>
  <outline>
    <contour>
      <point x="204" y="144" type="curve" smooth="yes"/>
      <point x="215" y="144"/>
      <point x="225" y="147"/>
      <point x="225" y="152" type="curve" smooth="yes"/>
      <point x="225" y="269" type="line" smooth="yes"/>
      <point x="225" y="274"/>
      <point x="228" y="276"/>
      <point x="232" y="276" type="curve" smooth="yes"/>
      <point x="341" y="276" type="line" smooth="yes"/>
      <point x="346" y="276"/>
      <point x="347" y="285"/>
      <point x="347" y="295" type="curve" smooth="yes"/>
      <point x="347" y="307"/>
      <point x="345" y="320"/>
      <point x="341" y="320" type="curve"/>
      <point x="232" y="320" type="line" smooth="yes"/>
      <point x="226" y="320"/>
      <point x="226" y="325"/>
      <point x="226" y="328" type="curve" smooth="yes"/>
      <point x="226" y="432" type="line"/>
      <point x="220" y="435"/>
      <point x="214" y="437"/>
      <point x="206" y="437" type="curve" smooth="yes"/>
      <point x="198" y="437"/>
      <point x="190" y="435"/>
      <point x="181" y="432" type="curve"/>
      <point x="181" y="329" type="line" smooth="yes"/>
      <point x="181" y="326"/>
      <point x="180" y="320"/>
      <point x="172" y="320" type="curve" smooth="yes"/>
      <point x="68" y="320" type="line" smooth="yes"/>
      <point x="62" y="320"/>
      <point x="59" y="311"/>
      <point x="59" y="300" type="curve" smooth="yes"/>
      <point x="59" y="289"/>
      <point x="62" y="278"/>
      <point x="68" y="276" type="curve"/>
      <point x="174" y="276" type="line" smooth="yes"/>
      <point x="179" y="276"/>
      <point x="181" y="271"/>
      <point x="181" y="267" type="curve" smooth="yes"/>
      <point x="181" y="152" type="line" smooth="yes"/>
      <point x="181" y="147"/>
      <point x="193" y="144"/>
    </contour>
  </outline>
</glyph>
<glyph name="period" format="1">
  <advance width="224"/>
  <unicode hex="002E"/>
  <outline>
    <contour>
      <point x="112" y="-10" type="curve" smooth="yes"/>
      <point x="140" y="-10"/>
      <point x="163" y="13"/>
      <point x="163" y="41" type="curve" smooth="yes"/>
      <point x="163" y="69"/>
      <point x="140" y="92"/>
      <point x="112" y="92" type="curve" smooth="yes"/>
      <point x="83" y="92"/>
      <point x="60" y="69"/>
      <point x="60" y="41" type="curve" smooth="yes"/>
      <point x="60" y="13"/>
      <point x="83" y="-10"/>
    </contour>
  </outline>
</glyph>
<glyph name="four" format="1">
  <advance width="480"/>
  <unicode hex="0034"/>
  <outline>
    <contour>
      <point x="364" y="289" type="line"/>
      <point x="366" y="310" type="line"/>
      <point x="366" y="628" type="line"/>
      <point x="366" y="638"/>
      <point x="359" y="642"/>
      <point x="351" y="642" type="curve" smooth="yes"/>
      <point x="342" y="642"/>
      <point x="331" y="637"/>
      <point x="326" y="628" type="curve" smooth="yes"/>
      <point x="260" y="510"/>
      <point x="168" y="398"/>
      <point x="66" y="296" type="curve" smooth="yes"/>
      <point x="63" y="293"/>
      <point x="61" y="289"/>
      <point x="61" y="285" type="curve" smooth="yes"/>
      <point x="61" y="281"/>
      <point x="65" y="278"/>
      <point x="69" y="278" type="curve"/>
      <point x="302" y="278" type="line"/>
      <point x="302" y="319" type="line"/>
      <point x="296" y="319"/>
      <point x="276" y="319"/>
      <point x="249" y="320" type="curve" smooth="yes"/>
      <point x="222" y="321"/>
      <point x="168" y="322"/>
      <point x="134" y="322" type="curve"/>
      <point x="190" y="388"/>
      <point x="262" y="483"/>
      <point x="314" y="563" type="curve"/>
      <point x="298" y="562" type="line"/>
      <point x="298" y="6" type="line"/>
      <point x="298" y="2"/>
      <point x="299" y="0"/>
      <point x="304" y="0" type="curve"/>
      <point x="358" y="0" type="line"/>
      <point x="363" y="0"/>
      <point x="364" y="3"/>
      <point x="364" y="8" type="curve"/>
    </contour>
    <contour>
      <point x="353" y="321" type="curve"/>
      <point x="353" y="278" type="line"/>
      <point x="443" y="278" type="line"/>
      <point x="438" y="283"/>
      <point x="435" y="290"/>
      <point x="435" y="302" type="curve" smooth="yes"/>
      <point x="435" y="314"/>
      <point x="438" y="322"/>
      <point x="445" y="329" type="curve"/>
      <point x="419" y="324"/>
      <point x="394" y="321"/>
    </contour>
  </outline>
</glyph>
<glyph name="greater" format="1">
  <advance width="484"/>
  <unicode hex="003E"/>
  <outline>
    <contour>
      <point x="51" y="94" type="line"/>
      <point x="439" y="314" type="line"/>
      <point x="439" y="330" type="line"/>
      <point x="51" y="550" type="line"/>
      <point x="51" y="486" type="line"/>
      <point x="332" y="324" type="line"/>
      <point x="51" y="162" type="line"/>
    </contour>
  </outline>
</glyph>
<glyph name="H" format="1">
  <advance width="789"/>
  <unicode hex="0048"/>
  <outline>
    <contour>
      <point x="54" y="0" type="line"/>
      <point x="54" y="16" type="line"/>
      <point x="61" y="16"/>
      <point x="72" y="17"/>
      <point x="78" y="18" type="curve" smooth="yes"/>
      <point x="100" y="21"/>
      <point x="105" y="33"/>
      <point x="106" y="49" type="curve" smooth="yes"/>
      <point x="109" y="122"/>
      <point x="109" y="265"/>
      <point x="109" y="400" type="curve" smooth="yes"/>
      <point x="109" y="516"/>
      <point x="108" y="627"/>
      <point x="106" y="682" type="curve" smooth="yes"/>
      <point x="106" y="694"/>
      <point x="96" y="707"/>
      <point x="78" y="712" type="curve" smooth="yes"/>
      <point x="70" y="714"/>
      <point x="62" y="714"/>
      <point x="54" y="714" type="curve"/>
      <point x="54" y="730" type="line"/>
      <point x="241" y="730" type="line"/>
      <point x="241" y="715" type="line"/>
      <point x="234" y="715"/>
      <point x="225" y="714"/>
      <point x="217" y="712" type="curve" smooth="yes"/>
      <point x="197" y="707"/>
      <point x="189" y="697"/>
      <point x="189" y="682" type="curve" smooth="yes"/>
      <point x="189" y="626"/>
      <point x="189" y="566"/>
      <point x="189" y="510" type="curve" smooth="yes"/>
      <point x="189" y="482"/>
      <point x="189" y="454"/>
      <point x="189" y="428" type="curve" smooth="yes"/>
      <point x="189" y="425"/>
      <point x="191" y="420"/>
      <point x="196" y="420" type="curve" smooth="yes"/>
      <point x="198" y="420"/>
      <point x="200" y="420"/>
      <point x="201" y="420" type="curve" smooth="yes"/>
      <point x="227" y="419"/>
      <point x="309" y="418"/>
      <point x="392" y="418" type="curve" smooth="yes"/>
      <point x="475" y="418"/>
      <point x="559" y="419"/>
      <point x="586" y="420" type="curve" smooth="yes"/>
      <point x="588" y="420"/>
      <point x="589" y="420"/>
      <point x="590" y="420" type="curve" smooth="yes"/>
      <point x="595" y="420"/>
      <point x="598" y="425"/>
      <point x="598" y="428" type="curve" smooth="yes"/>
      <point x="598" y="682" type="line" smooth="yes"/>
      <point x="598" y="695"/>
      <point x="587" y="707"/>
      <point x="570" y="712" type="curve" smooth="yes"/>
      <point x="562" y="714"/>
      <point x="554" y="714"/>
      <point x="545" y="714" type="curve"/>
      <point x="545" y="730" type="line"/>
      <point x="733" y="730" type="line"/>
      <point x="733" y="714" type="line"/>
      <point x="725" y="714"/>
      <point x="715" y="713"/>
      <point x="709" y="712" type="curve" smooth="yes"/>
      <point x="690" y="707"/>
      <point x="681" y="698"/>
      <point x="680" y="683" type="curve" smooth="yes"/>
      <point x="678" y="627"/>
      <point x="677" y="516"/>
      <point x="677" y="399" type="curve" smooth="yes"/>
      <point x="677" y="265"/>
      <point x="677" y="122"/>
      <point x="680" y="47" type="curve" smooth="yes"/>
      <point x="681" y="34"/>
      <point x="690" y="22"/>
      <point x="708" y="18" type="curve" smooth="yes"/>
      <point x="716" y="16"/>
      <point x="724" y="16"/>
      <point x="733" y="16" type="curve"/>
      <point x="733" y="0" type="line"/>
      <point x="545" y="0" type="line"/>
      <point x="545" y="16" type="line"/>
      <point x="553" y="16"/>
      <point x="564" y="17"/>
      <point x="570" y="18" type="curve" smooth="yes"/>
      <point x="592" y="20"/>
      <point x="598" y="32"/>
      <point x="598" y="48" type="curve" smooth="yes"/>
      <point x="598" y="370" type="line" smooth="yes"/>
      <point x="598" y="374"/>
      <point x="595" y="379"/>
      <point x="590" y="379" type="curve" smooth="yes"/>
      <point x="589" y="379"/>
      <point x="587" y="379"/>
      <point x="586" y="379" type="curve" smooth="yes"/>
      <point x="559" y="381"/>
      <point x="475" y="382"/>
      <point x="392" y="382" type="curve" smooth="yes"/>
      <point x="309" y="382"/>
      <point x="227" y="381"/>
      <point x="202" y="379" type="curve" smooth="yes"/>
      <point x="200" y="379"/>
      <point x="198" y="379"/>
      <point x="196" y="379" type="curve" smooth="yes"/>
      <point x="191" y="379"/>
      <point x="189" y="374"/>
      <point x="189" y="370" type="curve" smooth="yes"/>
      <point x="189" y="339"/>
      <point x="189" y="119"/>
      <point x="189" y="47" type="curve" smooth="yes"/>
      <point x="189" y="35"/>
      <point x="199" y="23"/>
      <point x="217" y="18" type="curve" smooth="yes"/>
      <point x="225" y="16"/>
      <point x="233" y="16"/>
      <point x="241" y="16" type="curve"/>
      <point x="241" y="0" type="line"/>
    </contour>
    <contour>
      <point x="394" y="730" type="move" name="top"/>
    </contour>
  </outline>
</glyph>
<glyph name="P" format="1">
  <advance width="540"/>
  <unicode hex="0050"/>
  <outline>
    <contour>
      <point x="17" y="0" type="line"/>
      <point x="204" y="0" type="line"/>
      <point x="204" y="16" type="line"/>
      <point x="196" y="16"/>
      <point x="188" y="17"/>
      <point x="180" y="18" type="curve" smooth="yes"/>
      <point x="161" y="20"/>
      <point x="152" y="35"/>
      <point x="152" y="47" type="curve" smooth="yes"/>
      <point x="149" y="124"/>
      <point x="148" y="281"/>
      <point x="148" y="397" type="curve" smooth="yes"/>
      <point x="148" y="494"/>
      <point x="151" y="676"/>
      <point x="152" y="701" type="curve" smooth="yes"/>
      <point x="152" y="703"/>
      <point x="153" y="704"/>
      <point x="155" y="704" type="curve" smooth="yes"/>
      <point x="200" y="704" type="line" smooth="yes"/>
      <point x="345" y="704"/>
      <point x="426" y="663"/>
      <point x="426" y="519" type="curve" smooth="yes"/>
      <point x="426" y="364"/>
      <point x="319" y="311"/>
      <point x="190" y="311" type="curve" smooth="yes"/>
      <point x="180" y="311"/>
      <point x="175" y="304"/>
      <point x="175" y="297" type="curve" smooth="yes"/>
      <point x="175" y="290"/>
      <point x="180" y="285"/>
      <point x="191" y="284" type="curve" smooth="yes"/>
      <point x="202" y="283"/>
      <point x="214" y="282"/>
      <point x="226" y="282" type="curve" smooth="yes"/>
      <point x="358" y="282"/>
      <point x="504" y="354"/>
      <point x="504" y="507" type="curve" smooth="yes"/>
      <point x="504" y="672"/>
      <point x="385" y="732"/>
      <point x="235" y="732" type="curve" smooth="yes"/>
      <point x="203" y="732"/>
      <point x="170" y="732"/>
      <point x="139" y="731" type="curve" smooth="yes"/>
      <point x="108" y="730"/>
      <point x="75" y="730"/>
      <point x="43" y="730" type="curve" smooth="yes"/>
      <point x="34" y="730"/>
      <point x="26" y="730"/>
      <point x="17" y="730" type="curve"/>
      <point x="17" y="714" type="line"/>
      <point x="25" y="714"/>
      <point x="34" y="714"/>
      <point x="42" y="712" type="curve" smooth="yes"/>
      <point x="59" y="708"/>
      <point x="69" y="687"/>
      <point x="70" y="668" type="curve" smooth="yes"/>
      <point x="73" y="579"/>
      <point x="73" y="490"/>
      <point x="73" y="401" type="curve" smooth="yes"/>
      <point x="73" y="284"/>
      <point x="73" y="166"/>
      <point x="69" y="49" type="curve" smooth="yes"/>
      <point x="69" y="35"/>
      <point x="61" y="23"/>
      <point x="42" y="18" type="curve" smooth="yes"/>
      <point x="34" y="16"/>
      <point x="25" y="16"/>
      <point x="17" y="16" type="curve"/>
    </contour>
  </outline>
</glyph>
<glyph name="grave" format="1">
  <advance width="251"/>
  <unicode hex="0060"/>
  <outline>
    <contour>
      <point x="218" y="534" type="curve"/>
      <point x="231" y="547" type="line"/>
      <point x="195" y="599"/>
      <point x="112" y="716"/>
      <point x="97" y="731" type="curve" smooth="yes"/>
      <point x="88" y="740"/>
      <point x="77" y="744"/>
      <point x="65" y="744" type="curve" smooth="yes"/>
      <point x="42" y="744"/>
      <point x="21" y="723"/>
      <point x="21" y="700" type="curve" smooth="yes"/>
      <point x="21" y="688"/>
      <point x="25" y="677"/>
      <point x="34" y="668" type="curve" smooth="yes"/>
      <point x="49" y="653"/>
      <point x="165" y="569"/>
    </contour>
  </outline>
</glyph>
<glyph name="f" format="1">
  <advance width="482"/>
  <unicode hex="0066"/>
  <outline>
    <contour>
      <point x="171" y="478" type="line"/>
      <point x="162" y="496" type="line"/>
      <point x="162" y="572" type="line" smooth="yes"/>
      <point x="162" y="675"/>
      <point x="219" y="745"/>
      <point x="293" y="745" type="curve" smooth="yes"/>
      <point x="332" y="745"/>
      <point x="348" y="726"/>
      <point x="361" y="709" type="curve" smooth="yes"/>
      <point x="373" y="694"/>
      <point x="385" y="679"/>
      <point x="411" y="679" type="curve" smooth="yes"/>
      <point x="427" y="679"/>
      <point x="450" y="688"/>
      <point x="450" y="700" type="curve" smooth="yes"/>
      <point x="450" y="703"/>
      <point x="448" y="706"/>
      <point x="446" y="709" type="curve" smooth="yes"/>
      <point x="412" y="760"/>
      <point x="354" y="766"/>
      <point x="314" y="766" type="curve" smooth="yes"/>
      <point x="190" y="766"/>
      <point x="126" y="714"/>
      <point x="106" y="577" type="curve" smooth="yes"/>
      <point x="105" y="570"/>
      <point x="105" y="561"/>
      <point x="105" y="553" type="curve"/>
      <point x="105" y="37" type="line" smooth="yes"/>
      <point x="105" y="28"/>
      <point x="99" y="19"/>
      <point x="86" y="17" type="curve" smooth="yes"/>
      <point x="80" y="16"/>
      <point x="75" y="16"/>
      <point x="69" y="16" type="curve"/>
      <point x="69" y="0" type="line"/>
      <point x="207" y="0" type="line"/>
      <point x="207" y="16" type="line"/>
      <point x="201" y="16"/>
      <point x="196" y="16"/>
      <point x="190" y="17" type="curve" smooth="yes"/>
      <point x="177" y="19"/>
      <point x="171" y="28"/>
      <point x="171" y="37" type="curve" smooth="yes"/>
    </contour>
    <contour>
      <point x="113" y="469" type="curve"/>
      <point x="113" y="501" type="line"/>
      <point x="57" y="501" type="line"/>
      <point x="49" y="465" type="line"/>
      <point x="73" y="468"/>
      <point x="90" y="469"/>
    </contour>
    <contour>
      <point x="153" y="505" type="line"/>
      <point x="163" y="469" type="line"/>
      <point x="201" y="469"/>
      <point x="302" y="466"/>
      <point x="308" y="465" type="curve"/>
      <point x="312" y="481" type="line" smooth="yes"/>
      <point x="313" y="485"/>
      <point x="314" y="489"/>
      <point x="314" y="492" type="curve" smooth="yes"/>
      <point x="314" y="500"/>
      <point x="308" y="505"/>
      <point x="287" y="505" type="curve"/>
    </contour>
  </outline>
</glyph>
<glyph name="h" format="1">
  <advance width="516"/>
  <unicode hex="0068"/>
  <outline>
    <contour>
      <point x="157" y="38" type="curve" smooth="yes"/>
      <point x="157" y="728" type="line" smooth="yes"/>
      <point x="157" y="741"/>
      <point x="156" y="746"/>
      <point x="151" y="746" type="curve" smooth="yes"/>
      <point x="150" y="746"/>
      <point x="146" y="745"/>
      <point x="143" y="744" type="curve" smooth="yes"/>
      <point x="57" y="721" type="line"/>
      <point x="57" y="708" type="line"/>
      <point x="62" y="708"/>
      <point x="67" y="706"/>
      <point x="72" y="704" type="curve" smooth="yes"/>
      <point x="85" y="699"/>
      <point x="91" y="688"/>
      <point x="91" y="669" type="curve" smooth="yes"/>
      <point x="91" y="38" type="line" smooth="yes"/>
      <point x="91" y="29"/>
      <point x="85" y="19"/>
      <point x="72" y="17" type="curve" smooth="yes"/>
      <point x="66" y="16"/>
      <point x="61" y="16"/>
      <point x="55" y="16" type="curve"/>
      <point x="55" y="0" type="line"/>
      <point x="193" y="0" type="line"/>
      <point x="193" y="16" type="line"/>
      <point x="188" y="16"/>
      <point x="182" y="16"/>
      <point x="176" y="17" type="curve" smooth="yes"/>
      <point x="163" y="19"/>
      <point x="157" y="29"/>
    </contour>
    <contour>
      <point x="151" y="464" type="curve"/>
      <point x="149" y="432" type="line"/>
      <point x="199" y="468"/>
      <point x="241" y="479"/>
      <point x="277" y="479" type="curve" smooth="yes"/>
      <point x="343" y="479"/>
      <point x="393" y="423"/>
      <point x="393" y="351" type="curve" smooth="yes"/>
      <point x="393" y="38" type="line" smooth="yes"/>
      <point x="393" y="29"/>
      <point x="387" y="19"/>
      <point x="374" y="17" type="curve" smooth="yes"/>
      <point x="368" y="16"/>
      <point x="363" y="16"/>
      <point x="357" y="16" type="curve"/>
      <point x="357" y="0" type="line"/>
      <point x="495" y="0" type="line"/>
      <point x="495" y="16" type="line"/>
      <point x="489" y="16"/>
      <point x="484" y="16"/>
      <point x="478" y="17" type="curve" smooth="yes"/>
      <point x="465" y="19"/>
      <point x="459" y="28"/>
      <point x="459" y="37" type="curve" smooth="yes"/>
      <point x="459" y="351" type="line" smooth="yes"/>
      <point x="459" y="460"/>
      <point x="375" y="510"/>
      <point x="295" y="510" type="curve" smooth="yes"/>
      <point x="233" y="510"/>
      <point x="195" y="495"/>
    </contour>
    <contour>
      <point x="309" y="740" type="move" name="top"/>
    </contour>
  </outline>
</glyph>
<glyph name="t" format="1">
  <advance width="343"/>
  <unicode hex="0074"/>
  <outline>
    <contour>
      <point x="232" y="-10" type="curve" smooth="yes"/>
      <point x="252" y="-10"/>
      <point x="266" y="-7"/>
      <point x="286" y="0" type="curve"/>
      <point x="278" y="30" type="line"/>
      <point x="270" y="29"/>
      <point x="262" y="28"/>
      <point x="255" y="28" type="curve" smooth="yes"/>
      <point x="225" y="28"/>
      <point x="202" y="35"/>
      <point x="195" y="77" type="curve" smooth="yes"/>
      <point x="192" y="95"/>
      <point x="189" y="136"/>
      <point x="189" y="162" type="curve" smooth="yes"/>
      <point x="189" y="501" type="line" smooth="yes"/>
      <point x="189" y="524"/>
      <point x="189" y="548"/>
      <point x="189" y="572" type="curve" smooth="yes"/>
      <point x="189" y="585"/>
      <point x="185" y="589"/>
      <point x="178" y="589" type="curve" smooth="yes"/>
      <point x="175" y="589"/>
      <point x="170" y="584"/>
      <point x="166" y="580" type="curve" smooth="yes"/>
      <point x="132" y="545"/>
      <point x="101" y="521"/>
      <point x="56" y="498" type="curve" smooth="yes"/>
      <point x="51" y="496"/>
      <point x="42" y="492"/>
      <point x="42" y="484" type="curve" smooth="yes"/>
      <point x="42" y="480"/>
      <point x="44" y="478"/>
      <point x="46" y="477" type="curve" smooth="yes"/>
      <point x="49" y="476"/>
      <point x="65" y="476"/>
      <point x="78" y="476" type="curve" smooth="yes"/>
      <point x="92" y="476"/>
      <point x="95" y="476"/>
      <point x="99" y="475" type="curve" smooth="yes"/>
      <point x="111" y="472"/>
      <point x="118" y="463"/>
      <point x="118" y="447" type="curve" smooth="yes"/>
      <point x="118" y="164" type="line"/>
      <point x="118" y="105"/>
      <point x="129" y="54"/>
      <point x="154" y="23" type="curve" smooth="yes"/>
      <point x="176" y="-4"/>
      <point x="204" y="-10"/>
    </contour>
    <contour>
      <point x="182" y="469" type="line"/>
      <point x="187" y="472"/>
      <point x="200" y="472"/>
      <point x="210" y="472" type="curve" smooth="yes"/>
      <point x="250" y="472"/>
      <point x="287" y="472"/>
      <point x="305" y="471" type="curve"/>
      <point x="309" y="488" type="line" smooth="yes"/>
      <point x="310" y="493"/>
      <point x="310" y="496"/>
      <point x="310" y="499" type="curve" smooth="yes"/>
      <point x="310" y="507"/>
      <point x="306" y="511"/>
      <point x="287" y="511" type="curve" smooth="yes"/>
      <point x="274" y="511"/>
      <point x="214" y="511"/>
      <point x="178" y="511" type="curve"/>
    </contour>
    <contour>
      <point x="197" y="-10" type="move" name="bottom"/>
    </contour>
  </outline>
</glyph>
<glyph name="braceleft" format="1">
  <advance width="251"/>
  <unicode hex="007B"/>
  <outline>
    <contour>
      <point x="26" y="358" type="curve" smooth="yes"/>
      <point x="26" y="352"/>
      <point x="36" y="345"/>
      <point x="44" y="341" type="curve" smooth="yes"/>
      <point x="60" y="334"/>
      <point x="99" y="315"/>
      <point x="99" y="264" type="curve" smooth="yes"/>
      <point x="99" y="228"/>
      <point x="96" y="196"/>
      <point x="92" y="163" type="curve" smooth="yes"/>
      <point x="88" y="131"/>
      <point x="81" y="75"/>
      <point x="81" y="22" type="curve" smooth="yes"/>
      <point x="81" y="-77"/>
      <point x="177" y="-85"/>
      <point x="205" y="-85" type="curve"/>
      <point x="205" y="-69" type="line"/>
      <point x="175" y="-69"/>
      <point x="137" y="-44"/>
      <point x="137" y="21" type="curve" smooth="yes"/>
      <point x="137" y="58"/>
      <point x="142" y="118"/>
      <point x="147" y="168" type="curve" smooth="yes"/>
      <point x="151" y="205"/>
      <point x="153" y="238"/>
      <point x="153" y="258" type="curve" smooth="yes"/>
      <point x="153" y="320"/>
      <point x="130" y="351"/>
      <point x="93" y="358" type="curve"/>
      <point x="130" y="365"/>
      <point x="153" y="396"/>
      <point x="153" y="458" type="curve" smooth="yes"/>
      <point x="153" y="478"/>
      <point x="151" y="511"/>
      <point x="147" y="548" type="curve" smooth="yes"/>
      <point x="142" y="598"/>
      <point x="137" y="658"/>
      <point x="137" y="695" type="curve" smooth="yes"/>
      <point x="137" y="760"/>
      <point x="175" y="785"/>
      <point x="205" y="785" type="curve"/>
      <point x="205" y="801" type="line"/>
      <point x="177" y="801"/>
      <point x="81" y="793"/>
      <point x="81" y="694" type="curve" smooth="yes"/>
      <point x="81" y="641"/>
      <point x="88" y="585"/>
      <point x="92" y="553" type="curve" smooth="yes"/>
      <point x="96" y="520"/>
      <point x="99" y="488"/>
      <point x="99" y="452" type="curve" smooth="yes"/>
      <point x="99" y="401"/>
      <point x="60" y="382"/>
      <point x="44" y="374" type="curve" smooth="yes"/>
      <point x="36" y="370"/>
      <point x="26" y="364"/>
    </contour>
  </outline>
</glyph>
<glyph name="asciitilde" format="1">
  <advance width="510"/>
  <unicode hex="007E"/>
  <outline>
    <contour>
      <point x="318" y="233" type="curve" smooth="yes"/>
      <point x="384" y="233"/>
      <point x="454" y="318"/>
      <point x="454" y="342" type="curve" smooth="yes"/>
      <point x="454" y="346"/>
      <point x="449" y="349"/>
      <point x="444" y="349" type="curve" smooth="yes"/>
      <point x="442" y="349"/>
      <point x="436" y="345"/>
      <point x="429" y="340" type="curve" smooth="yes"/>
      <point x="408" y="325"/>
      <point x="370" y="299"/>
      <point x="328" y="299" type="curve" smooth="yes"/>
      <point x="286" y="299"/>
      <point x="261" y="316"/>
      <point x="237" y="333" type="curve" smooth="yes"/>
      <point x="214" y="349"/>
      <point x="190" y="365"/>
      <point x="152" y="365" type="curve" smooth="yes"/>
      <point x="91" y="365"/>
      <point x="26" y="278"/>
      <point x="26" y="271" type="curve" smooth="yes"/>
      <point x="26" y="264"/>
      <point x="30" y="260"/>
      <point x="36" y="260" type="curve" smooth="yes"/>
      <point x="43" y="260"/>
      <point x="54" y="265"/>
      <point x="68" y="273" type="curve" smooth="yes"/>
      <point x="89" y="285"/>
      <point x="118" y="301"/>
      <point x="147" y="301" type="curve" smooth="yes"/>
      <point x="185" y="301"/>
      <point x="209" y="284"/>
      <point x="232" y="267" type="curve" smooth="yes"/>
      <point x="255" y="250"/>
      <point x="279" y="233"/>
    </contour>
  </outline>
</glyph>
<glyph name="section" format="1">
  <advance width="430"/>
  <unicode hex="00A7"/>
  <outline>
    <contour>
      <point x="222" y="-72" type="curve" smooth="yes"/>
      <point x="268" y="-72"/>
      <point x="335" y="-19"/>
      <point x="335" y="89" type="curve" smooth="yes"/>
      <point x="335" y="106"/>
      <point x="328" y="130"/>
      <point x="322" y="145" type="curve"/>
      <point x="358" y="198"/>
      <point x="385" y="257"/>
      <point x="385" y="296" type="curve" smooth="yes"/>
      <point x="385" y="374"/>
      <point x="334" y="415"/>
      <point x="281" y="456" type="curve" smooth="yes"/>
      <point x="224" y="500"/>
      <point x="166" y="546"/>
      <point x="166" y="641" type="curve" smooth="yes"/>
      <point x="166" y="720"/>
      <point x="202" y="779"/>
      <point x="240" y="779" type="curve" smooth="yes"/>
      <point x="266" y="779"/>
      <point x="273" y="749"/>
      <point x="277" y="723" type="curve" smooth="yes"/>
      <point x="280" y="703"/>
      <point x="284" y="687"/>
      <point x="296" y="687" type="curve" smooth="yes"/>
      <point x="308" y="687"/>
      <point x="318" y="695"/>
      <point x="318" y="722" type="curve" smooth="yes"/>
      <point x="318" y="749"/>
      <point x="288" y="798"/>
      <point x="243" y="798" type="curve" smooth="yes"/>
      <point x="186" y="798"/>
      <point x="115" y="727"/>
      <point x="115" y="591" type="curve" smooth="yes"/>
      <point x="115" y="573"/>
      <point x="117" y="556"/>
      <point x="121" y="541" type="curve"/>
      <point x="78" y="506"/>
      <point x="47" y="431"/>
      <point x="47" y="394" type="curve" smooth="yes"/>
      <point x="47" y="304"/>
      <point x="106" y="260"/>
      <point x="165" y="216" type="curve" smooth="yes"/>
      <point x="222" y="173"/>
      <point x="279" y="128"/>
      <point x="279" y="41" type="curve" smooth="yes"/>
      <point x="279" y="-28"/>
      <point x="256" y="-53"/>
      <point x="222" y="-53" type="curve" smooth="yes"/>
      <point x="194" y="-53"/>
      <point x="183" y="-25"/>
      <point x="183" y="5" type="curve" smooth="yes"/>
      <point x="183" y="10"/>
      <point x="184" y="14"/>
      <point x="185" y="18" type="curve" smooth="yes"/>
      <point x="186" y="21"/>
      <point x="187" y="25"/>
      <point x="187" y="29" type="curve" smooth="yes"/>
      <point x="187" y="47"/>
      <point x="166" y="57"/>
      <point x="157" y="57" type="curve" smooth="yes"/>
      <point x="147" y="57"/>
      <point x="143" y="48"/>
      <point x="143" y="34" type="curve" smooth="yes"/>
      <point x="143" y="-17"/>
      <point x="166" y="-72"/>
    </contour>
    <contour>
      <point x="311" y="168" type="curve"/>
      <point x="294" y="211"/>
      <point x="251" y="241"/>
      <point x="207" y="270" type="curve" smooth="yes"/>
      <point x="147" y="309"/>
      <point x="88" y="350"/>
      <point x="88" y="423" type="curve" smooth="yes"/>
      <point x="88" y="444"/>
      <point x="110" y="500"/>
      <point x="127" y="522" type="curve"/>
      <point x="148" y="466"/>
      <point x="195" y="432"/>
      <point x="240" y="401" type="curve" smooth="yes"/>
      <point x="292" y="365"/>
      <point x="339" y="329"/>
      <point x="339" y="263" type="curve" smooth="yes"/>
      <point x="339" y="244"/>
      <point x="326" y="200"/>
    </contour>
  </outline>
</glyph>
<glyph name="dieresis" format="1">
  <advance width="427"/>
  <unicode hex="00A8"/>
  <outline>
    <contour>
      <point x="321" y="634" type="curve" smooth="yes"/>
      <point x="346" y="634"/>
      <point x="367" y="654"/>
      <point x="367" y="680" type="curve" smooth="yes"/>
      <point x="367" y="706"/>
      <point x="346" y="726"/>
      <point x="321" y="726" type="curve" smooth="yes"/>
      <point x="295" y="726"/>
      <point x="274" y="706"/>
      <point x="274" y="680" type="curve" smooth="yes"/>
      <point x="274" y="654"/>
      <point x="295" y="634"/>
    </contour>
    <contour>
      <point x="97" y="634" type="curve" smooth="yes"/>
      <point x="123" y="634"/>
      <point x="144" y="654"/>
      <point x="144" y="680" type="curve" smooth="yes"/>
      <point x="144" y="706"/>
      <point x="123" y="726"/>
      <point x="97" y="726" type="curve" smooth="yes"/>
      <point x="72" y="726"/>
      <point x="51" y="706"/>
      <point x="51" y="680" type="curve" smooth="yes"/>
      <point x="51" y="654"/>
      <point x="72" y="634"/>
    </contour>
    <contour>
      <point x="209" y="791" type="move" name="_bottom"/>
    </contour>
    <contour>
      <point x="209" y="507" type="move" name="_top"/>
    </contour>
  </outline>
</glyph>
<glyph name="logicalnot" format="1">
  <advance width="427"/>
  <unicode hex="00AC"/>
  <outline>
    <contour>
      <point x="383" y="188" type="curve" smooth="yes"/>
      <point x="390" y="188"/>
      <point x="395" y="189"/>
      <point x="395" y="193" type="curve" smooth="yes"/>
      <point x="395" y="318" type="line"/>
      <point x="29" y="318" type="line" smooth="yes"/>
      <point x="26" y="318"/>
      <point x="25" y="313"/>
      <point x="25" y="306" type="curve" smooth="yes"/>
      <point x="25" y="298"/>
      <point x="26" y="293"/>
      <point x="29" y="293" type="curve" smooth="yes"/>
      <point x="371" y="293" type="line"/>
      <point x="371" y="193" type="line" smooth="yes"/>
      <point x="371" y="189"/>
      <point x="377" y="188"/>
    </contour>
  </outline>
</glyph>
<glyph name="registered" format="1">
  <advance width="675"/>
  <unicode hex="00AE"/>
  <outline>
    <contour>
      <point x="289" y="102" type="curve" smooth="yes"/>
      <point x="430" y="102"/>
      <point x="533" y="209"/>
      <point x="533" y="349" type="curve" smooth="yes"/>
      <point x="533" y="490"/>
      <point x="428" y="601"/>
      <point x="288" y="601" type="curve" smooth="yes"/>
      <point x="147" y="601"/>
      <point x="25" y="490"/>
      <point x="25" y="349" type="curve" smooth="yes"/>
      <point x="25" y="209"/>
      <point x="149" y="102"/>
    </contour>
    <contour>
      <point x="289" y="136" type="curve" smooth="yes"/>
      <point x="170" y="136"/>
      <point x="63" y="230"/>
      <point x="63" y="349" type="curve" smooth="yes"/>
      <point x="63" y="469"/>
      <point x="168" y="573"/>
      <point x="288" y="573" type="curve" smooth="yes"/>
      <point x="407" y="573"/>
      <point x="495" y="469"/>
      <point x="495" y="349" type="curve" smooth="yes"/>
      <point x="495" y="298"/>
      <point x="479" y="251"/>
      <point x="451" y="214" type="curve"/>
      <point x="438" y="214"/>
      <point x="425" y="214"/>
      <point x="422" y="215" type="curve" smooth="yes"/>
      <point x="417" y="217"/>
      <point x="413" y="219"/>
      <point x="409" y="224" type="curve" smooth="yes"/>
      <point x="390" y="247"/>
      <point x="350" y="296"/>
      <point x="310" y="347" type="curve"/>
      <point x="348" y="354"/>
      <point x="386" y="382"/>
      <point x="386" y="425" type="curve" smooth="yes"/>
      <point x="386" y="482"/>
      <point x="332" y="508"/>
      <point x="261" y="508" type="curve" smooth="yes"/>
      <point x="230" y="508"/>
      <point x="194" y="507"/>
      <point x="163" y="507" type="curve" smooth="yes"/>
      <point x="159" y="507"/>
      <point x="154" y="507"/>
      <point x="150" y="507" type="curve"/>
      <point x="150" y="495" type="line"/>
      <point x="154" y="495"/>
      <point x="158" y="495"/>
      <point x="162" y="494" type="curve" smooth="yes"/>
      <point x="171" y="492"/>
      <point x="176" y="483"/>
      <point x="176" y="476" type="curve" smooth="yes"/>
      <point x="176" y="467"/>
      <point x="176" y="439"/>
      <point x="176" y="401" type="curve" smooth="yes"/>
      <point x="176" y="330"/>
      <point x="176" y="235"/>
      <point x="176" y="227" type="curve" smooth="yes"/>
      <point x="176" y="222"/>
      <point x="171" y="217"/>
      <point x="162" y="215" type="curve" smooth="yes"/>
      <point x="158" y="214"/>
      <point x="154" y="214"/>
      <point x="150" y="214" type="curve"/>
      <point x="150" y="203" type="line"/>
      <point x="246" y="203" type="line"/>
      <point x="246" y="214" type="line"/>
      <point x="242" y="214"/>
      <point x="238" y="214"/>
      <point x="234" y="215" type="curve" smooth="yes"/>
      <point x="225" y="217"/>
      <point x="220" y="221"/>
      <point x="220" y="225" type="curve" smooth="yes"/>
      <point x="220" y="340" type="line"/>
      <point x="226" y="340"/>
      <point x="248" y="340"/>
      <point x="255" y="341" type="curve"/>
      <point x="337" y="236" type="line" smooth="yes"/>
      <point x="342" y="229"/>
      <point x="361" y="203"/>
      <point x="379" y="203" type="curve" smooth="yes"/>
      <point x="471" y="203" type="line"/>
      <point x="435" y="196" type="line"/>
      <point x="399" y="158"/>
      <point x="348" y="136"/>
    </contour>
    <contour>
      <point x="219" y="357" type="curve"/>
      <point x="219" y="364"/>
      <point x="219" y="371"/>
      <point x="219" y="379" type="curve" smooth="yes"/>
      <point x="219" y="423"/>
      <point x="219" y="484"/>
      <point x="219" y="493" type="curve"/>
      <point x="230" y="493" type="line"/>
      <point x="235" y="493"/>
      <point x="248" y="493"/>
      <point x="262" y="493" type="curve" smooth="yes"/>
      <point x="292" y="493"/>
      <point x="343" y="476"/>
      <point x="343" y="424" type="curve" smooth="yes"/>
      <point x="343" y="379"/>
      <point x="296" y="357"/>
      <point x="237" y="357" type="curve" smooth="yes"/>
      <point x="231" y="357"/>
      <point x="225" y="357"/>
    </contour>
  </outline>
</glyph>
<glyph name="degree" format="1">
  <advance width="186"/>
  <unicode hex="00B0"/>
  <outline>
    <contour>
      <point x="90" y="490" type="curve" smooth="yes"/>
      <point x="127" y="490"/>
      <point x="160" y="523"/>
      <point x="160" y="560" type="curve" smooth="yes"/>
      <point x="160" y="597"/>
      <point x="126" y="632"/>
      <point x="88" y="632" type="curve" smooth="yes"/>
      <point x="51" y="632"/>
      <point x="21" y="596"/>
      <point x="21" y="559" type="curve" smooth="yes"/>
      <point x="21" y="522"/>
      <point x="52" y="490"/>
    </contour>
    <contour>
      <point x="92" y="519" type="curve" smooth="yes"/>
      <point x="68" y="519"/>
      <point x="50" y="540"/>
      <point x="50" y="562" type="curve" smooth="yes"/>
      <point x="50" y="585"/>
      <point x="70" y="603"/>
      <point x="92" y="603" type="curve" smooth="yes"/>
      <point x="115" y="603"/>
      <point x="132" y="582"/>
      <point x="132" y="561" type="curve" smooth="yes"/>
      <point x="132" y="537"/>
      <point x="113" y="519"/>
    </contour>
  </outline>
</glyph>
<glyph name="onehalf" format="1">
  <advance width="555"/>
  <unicode hex="00BD"/>
  <outline>
    <contour>
      <point x="70" y="-10" type="line"/>
      <point x="99" y="-10" type="line"/>
      <point x="409" y="644" type="line"/>
      <point x="380" y="644" type="line"/>
    </contour>
    <contour>
      <point x="92" y="317" type="line"/>
      <point x="159" y="317" type="line"/>
      <point x="159" y="326" type="line"/>
      <point x="156" y="326" type="line" smooth="yes"/>
      <point x="147" y="326"/>
      <point x="143" y="331"/>
      <point x="143" y="336" type="curve" smooth="yes"/>
      <point x="143" y="592" type="line" smooth="yes"/>
      <point x="143" y="596"/>
      <point x="139" y="599"/>
      <point x="135" y="599" type="curve" smooth="yes"/>
      <point x="134" y="599"/>
      <point x="132" y="599"/>
      <point x="130" y="597" type="curve" smooth="yes"/>
      <point x="118" y="585"/>
      <point x="106" y="578"/>
      <point x="90" y="572" type="curve"/>
      <point x="90" y="562" type="line"/>
      <point x="93" y="563"/>
      <point x="96" y="564"/>
      <point x="104" y="564" type="curve" smooth="yes"/>
      <point x="107" y="564"/>
      <point x="108" y="556"/>
      <point x="108" y="548" type="curve" smooth="yes"/>
      <point x="108" y="336" type="line" smooth="yes"/>
      <point x="108" y="332"/>
      <point x="104" y="326"/>
      <point x="95" y="326" type="curve" smooth="yes"/>
      <point x="92" y="326" type="line"/>
    </contour>
    <contour>
      <point x="297" y="62" type="line"/>
      <point x="467" y="62" type="line"/>
      <point x="486" y="109" type="line"/>
      <point x="478" y="110" type="line"/>
      <point x="477" y="108" type="line" smooth="yes"/>
      <point x="471" y="96"/>
      <point x="463" y="88"/>
      <point x="442" y="88" type="curve" smooth="yes"/>
      <point x="337" y="88" type="line"/>
      <point x="351" y="105"/>
      <point x="384" y="148"/>
      <point x="415" y="185" type="curve" smooth="yes"/>
      <point x="453" y="230"/>
      <point x="476" y="259"/>
      <point x="476" y="286" type="curve" smooth="yes"/>
      <point x="476" y="322"/>
      <point x="450" y="343"/>
      <point x="403" y="343" type="curve" smooth="yes"/>
      <point x="350" y="343"/>
      <point x="327" y="300"/>
      <point x="326" y="298" type="curve"/>
      <point x="334" y="291" type="line"/>
      <point x="348" y="309"/>
      <point x="365" y="324"/>
      <point x="393" y="324" type="curve" smooth="yes"/>
      <point x="425" y="324"/>
      <point x="441" y="310"/>
      <point x="441" y="277" type="curve" smooth="yes"/>
      <point x="441" y="260"/>
      <point x="422" y="235"/>
      <point x="404" y="213" type="curve" smooth="yes"/>
      <point x="377" y="180"/>
      <point x="342" y="134"/>
      <point x="297" y="81" type="curve"/>
    </contour>
  </outline>
</glyph>
<glyph name="multiply" format="1">
  <advance width="404"/>
  <unicode hex="00D7"/>
  <outline>
    <contour>
      <point x="106" y="167" type="curve" smooth="yes"/>
      <point x="191" y="252" type="line" smooth="yes"/>
      <point x="195" y="256"/>
      <point x="198" y="255"/>
      <point x="201" y="252" type="curve" smooth="yes"/>
      <point x="280" y="173" type="line" smooth="yes"/>
      <point x="284" y="169"/>
      <point x="291" y="175"/>
      <point x="299" y="182" type="curve" smooth="yes"/>
      <point x="308" y="190"/>
      <point x="315" y="202"/>
      <point x="312" y="205" type="curve"/>
      <point x="233" y="284" type="line" smooth="yes"/>
      <point x="229" y="288"/>
      <point x="232" y="291"/>
      <point x="235" y="294" type="curve" smooth="yes"/>
      <point x="310" y="370" type="line"/>
      <point x="308" y="376"/>
      <point x="305" y="382"/>
      <point x="299" y="388" type="curve" smooth="yes"/>
      <point x="293" y="394"/>
      <point x="286" y="398"/>
      <point x="277" y="403" type="curve"/>
      <point x="202" y="328" type="line" smooth="yes"/>
      <point x="200" y="326"/>
      <point x="195" y="322"/>
      <point x="189" y="328" type="curve" smooth="yes"/>
      <point x="114" y="403" type="line" smooth="yes"/>
      <point x="109" y="408"/>
      <point x="101" y="403"/>
      <point x="93" y="395" type="curve" smooth="yes"/>
      <point x="85" y="387"/>
      <point x="79" y="377"/>
      <point x="82" y="371" type="curve"/>
      <point x="159" y="294" type="line" smooth="yes"/>
      <point x="162" y="291"/>
      <point x="160" y="286"/>
      <point x="157" y="283" type="curve" smooth="yes"/>
      <point x="74" y="199" type="line" smooth="yes"/>
      <point x="70" y="195"/>
      <point x="77" y="184"/>
      <point x="85" y="176" type="curve" smooth="yes"/>
      <point x="93" y="168"/>
      <point x="102" y="163"/>
    </contour>
  </outline>
</glyph>
<glyph name="Oslash" format="1">
  <advance width="800"/>
  <unicode hex="00D8"/>
  <outline>
    <contour>
      <point x="399.275" y="-10" type="curve" smooth="yes"/>
      <point x="554.773" y="-10"/>
      <point x="745.572" y="123.43"/>
      <point x="745.572" y="360.762" type="curve" smooth="yes"/>
      <point x="745.572" y="469.498"/>
      <point x="714.313" y="555.355"/>
      <point x="663.331" y="617.153" type="curve"/>
      <point x="679.598" y="633.538"/>
      <point x="694.908" y="648.908"/>
      <point x="709" y="663" type="curve"/>
      <point x="709" y="680"/>
      <point x="677" y="690.259"/>
      <point x="669.727" y="690.259" type="curve"/>
      <point x="657.683" y="676.667"/>
      <point x="645.427" y="662.932"/>
      <point x="632.977" y="649.071" type="curve"/>
      <point x="571.566" y="705.093"/>
      <point x="490.382" y="733.809"/>
      <point x="403.186" y="733.809" type="curve" smooth="yes"/>
      <point x="397.389" y="733.809" type="line" smooth="yes"/>
      <point x="212.711" y="733.809"/>
      <point x="55" y="600.656"/>
      <point x="55" y="351.762" type="curve" smooth="yes"/>
      <point x="55" y="246.427"/>
      <point x="83.695" y="170.399"/>
      <point x="125.823" y="116.106" type="curve"/>
      <point x="102.492" y="92.584"/>
      <point x="79.195" y="69.195"/>
      <point x="56" y="46" type="curve"/>
      <point x="56" y="39.29"/>
      <point x="83.547" y="35.274"/>
      <point x="100" y="35.274" type="curve" smooth="yes"/>
      <point x="107.006" y="35.274"/>
      <point x="112" y="36.208"/>
      <point x="112" y="38" type="curve" smooth="yes"/>
      <point x="112" y="41.265"/>
      <point x="126.692" y="58.99"/>
      <point x="151.791" y="86.863" type="curve"/>
      <point x="228.589" y="11.114"/>
      <point x="333.608" y="-10"/>
    </contour>
    <contour>
      <point x="406.984" y="26.667" type="curve" smooth="yes"/>
      <point x="358.818" y="26.667"/>
      <point x="260.335" y="35.546"/>
      <point x="198.594" y="137.763" type="curve"/>
      <point x="302.972" y="249.638"/>
      <point x="481.283" y="432.952"/>
      <point x="617.267" y="570.629" type="curve"/>
      <point x="646.077" y="515.46"/>
      <point x="658.246" y="447.483"/>
      <point x="658.246" y="377" type="curve" smooth="yes"/>
      <point x="658.246" y="96.713"/>
      <point x="535.775" y="26.667"/>
    </contour>
    <contour>
      <point x="180.994" y="171.923" type="curve"/>
      <point x="158.672" y="222.979"/>
      <point x="144.326" y="291.865"/>
      <point x="144.326" y="384.762" type="curve" smooth="yes"/>
      <point x="144.326" y="464"/>
      <point x="171.775" y="698.77"/>
      <point x="390.277" y="698.77" type="curve" smooth="yes"/>
      <point x="486.45" y="698.77"/>
      <point x="552.28" y="662.794"/>
      <point x="594.62" y="606.634" type="curve"/>
      <point x="468.448" y="467.885"/>
      <point x="325.13" y="318.258"/>
    </contour>
  </outline>
</glyph>
<glyph name="uni019E" format="1">
  <advance width="556"/>
  <unicode hex="019E"/>
  <outline>
    <contour>
      <point x="362.32" y="-130" type="line"/>
      <point x="500.441" y="-130" type="line"/>
      <point x="500.441" y="-114.441" type="line"/>
      <point x="494.67" y="-114.364"/>
      <point x="489.019" y="-113.859"/>
      <point x="483.483" y="-112.737" type="curve" smooth="yes"/>
      <point x="471.165" y="-110.24"/>
      <point x="466.135" y="-102.333"/>
      <point x="464.431" y="-93.811" type="curve" smooth="yes"/>
      <point x="464.499" y="351.708" type="line" smooth="yes"/>
      <point x="464.499" y="460.077"/>
      <point x="380.639" y="510.336"/>
      <point x="300.85" y="510.336" type="curve" smooth="yes"/>
      <point x="241.74" y="510.336"/>
      <point x="204.432" y="495.536"/>
      <point x="162.996" y="466.126" type="curve"/>
      <point x="162.996" y="476.233"/>
      <point x="163.002" y="486.34"/>
      <point x="163.002" y="496.446" type="curve" smooth="yes"/>
      <point x="163.002" y="512"/>
      <point x="161.357" y="514"/>
      <point x="157" y="514" type="curve" smooth="yes"/>
      <point x="156.402" y="514"/>
      <point x="154.758" y="513.476"/>
      <point x="154.064" y="513.299" type="curve" smooth="yes"/>
      <point x="59.409" y="489.1" type="line"/>
      <point x="59.409" y="475.516" type="line"/>
      <point x="63.575" y="475.516"/>
      <point x="68.556" y="474.104"/>
      <point x="73.881" y="472.215" type="curve" smooth="yes"/>
      <point x="86.811" y="467.627"/>
      <point x="93.228" y="455.532"/>
      <point x="93.228" y="437.169" type="curve" smooth="yes"/>
      <point x="93.228" y="37.387" type="line" smooth="yes"/>
      <point x="91.759" y="28.418"/>
      <point x="86.851" y="19.874"/>
      <point x="73.96" y="17.263" type="curve" smooth="yes"/>
      <point x="68.422" y="16.141"/>
      <point x="62.772" y="15.636"/>
      <point x="57" y="15.559" type="curve"/>
      <point x="57" y="0" type="line"/>
      <point x="199.077" y="0" type="line"/>
      <point x="199.077" y="15.559" type="line"/>
      <point x="193.307" y="15.636"/>
      <point x="187.654" y="16.141"/>
      <point x="182.117" y="17.263" type="curve" smooth="yes"/>
      <point x="169.4" y="19.84"/>
      <point x="164.45" y="28.188"/>
      <point x="162.91" y="37.023" type="curve" smooth="yes"/>
      <point x="162.991" y="443.526" type="line"/>
      <point x="204.37" y="469.854"/>
      <point x="246.724" y="482.017"/>
      <point x="280.425" y="482.017" type="curve" smooth="yes"/>
      <point x="346.308" y="482.017"/>
      <point x="398.704" y="423.043"/>
      <point x="398.704" y="351.766" type="curve" smooth="yes"/>
      <point x="398.704" y="-91.77" type="line"/>
      <point x="398.675" y="-91.77" type="line"/>
      <point x="397.378" y="-101.042"/>
      <point x="392.574" y="-110.044"/>
      <point x="379.279" y="-112.737" type="curve" smooth="yes"/>
      <point x="373.741" y="-113.859"/>
      <point x="368.089" y="-114.364"/>
      <point x="362.32" y="-114.441" type="curve"/>
    </contour>
  </outline>
</glyph>
<glyph name="uni01E4" format="1">
  <advance width="403"/>
  <unicode hex="01E4"/>
  <outline>
    <contour>
      <point x="411" y="-10.007" type="curve" smooth="yes"/>
      <point x="600.609" y="-10.007"/>
      <point x="694" y="124.369"/>
      <point x="694" y="166.738" type="curve" smooth="yes"/>
      <point x="694.929" y="189" type="line"/>
      <point x="771" y="189" type="line" smooth="yes"/>
      <point x="785" y="189"/>
      <point x="791.132" y="226.602"/>
      <point x="791.132" y="232.284" type="curve" smooth="yes"/>
      <point x="791.132" y="232.749"/>
      <point x="791" y="233"/>
      <point x="791" y="233" type="curve"/>
      <point x="696.766" y="233" type="line"/>
      <point x="697.61" y="253.224" type="line" smooth="yes"/>
      <point x="698.021" y="266.143"/>
      <point x="706.378" y="279.478"/>
      <point x="725.479" y="283.348" type="curve" smooth="yes"/>
      <point x="733.437" y="284.96"/>
      <point x="741.558" y="285.685"/>
      <point x="749.851" y="285.794" type="curve"/>
      <point x="749.851" y="301.669" type="line"/>
      <point x="572.807" y="301.669" type="line"/>
      <point x="572.807" y="285.794" type="line"/>
      <point x="581.099" y="285.685"/>
      <point x="589.221" y="284.958"/>
      <point x="597.178" y="283.348" type="curve" smooth="yes"/>
      <point x="616.281" y="279.481"/>
      <point x="624.83" y="266.151"/>
      <point x="625.048" y="253.224" type="curve" smooth="yes"/>
      <point x="625.642" y="233" type="line"/>
      <point x="538" y="233" type="line" smooth="yes"/>
      <point x="527" y="233"/>
      <point x="518" y="189"/>
      <point x="518" y="189" type="curve"/>
      <point x="626.936" y="189" type="line"/>
      <point x="627.545" y="168.284" type="line" smooth="yes"/>
      <point x="627.545" y="95"/>
      <point x="504.094" y="32"/>
      <point x="414" y="32" type="curve" smooth="yes"/>
      <point x="341" y="32"/>
      <point x="144" y="51.721"/>
      <point x="144" y="385" type="curve" smooth="yes"/>
      <point x="144" y="524.62"/>
      <point x="214.871" y="704.77"/>
      <point x="404" y="704.77" type="curve" smooth="yes"/>
      <point x="575.547" y="704.77"/>
      <point x="655.523" y="572.701"/>
      <point x="680.375" y="472" type="curve" smooth="yes"/>
      <point x="681.114" y="469.003"/>
      <point x="684.347" y="467.253"/>
      <point x="690.889" y="467.253" type="curve" smooth="yes"/>
      <point x="693.266" y="467.253"/>
      <point x="700" y="471"/>
      <point x="700" y="471" type="curve"/>
      <point x="696" y="673" type="line" smooth="yes"/>
      <point x="695.775" y="679.431"/>
      <point x="691.332" y="683.903"/>
      <point x="685" y="683.903" type="curve" smooth="yes"/>
      <point x="670.606" y="683.903"/>
      <point x="674.482" y="657.256"/>
      <point x="649" y="657.256" type="curve" smooth="yes"/>
      <point x="616.017" y="657.256"/>
      <point x="553.556" y="742.001"/>
      <point x="418" y="742.001" type="curve" smooth="yes"/>
      <point x="160.723" y="742.001"/>
      <point x="55" y="553.27"/>
      <point x="55" y="352" type="curve" smooth="yes"/>
      <point x="55" y="52.052"/>
      <point x="290.502" y="-10.007"/>
    </contour>
  </outline>
</glyph>
<glyph name="uni01F6" format="1">
  <advance width="1035"/>
  <unicode hex="01F6"/>
  <outline>
    <contour>
      <point x="799" y="-13" type="curve" smooth="yes"/>
      <point x="879" y="-13"/>
      <point x="988" y="44"/>
      <point x="988" y="152" type="curve" smooth="yes"/>
      <point x="988" y="497" type="line" smooth="yes"/>
      <point x="988" y="509"/>
      <point x="987" y="514"/>
      <point x="982" y="514" type="curve"/>
      <point x="972" y="512" type="line" smooth="yes"/>
      <point x="959" y="509"/>
      <point x="931" y="503"/>
      <point x="882" y="494" type="curve"/>
      <point x="882" y="481" type="line"/>
      <point x="886" y="481"/>
      <point x="891" y="480"/>
      <point x="896" y="479" type="curve" smooth="yes"/>
      <point x="909" y="476"/>
      <point x="916" y="471"/>
      <point x="916" y="452" type="curve" smooth="yes"/>
      <point x="916" y="152" type="line" smooth="yes"/>
      <point x="916" y="81"/>
      <point x="863" y="15"/>
      <point x="797" y="15" type="curve" smooth="yes"/>
      <point x="764" y="15"/>
      <point x="684" y="42"/>
      <point x="680" y="141" type="curve" smooth="yes"/>
      <point x="678" y="185"/>
      <point x="677" y="283"/>
      <point x="677" y="401" type="curve" smooth="yes"/>
      <point x="677" y="495"/>
      <point x="677" y="608"/>
      <point x="680" y="683" type="curve" smooth="yes"/>
      <point x="681" y="708"/>
      <point x="704" y="714"/>
      <point x="733" y="714" type="curve"/>
      <point x="733" y="730" type="line"/>
      <point x="545" y="730" type="line"/>
      <point x="545" y="714" type="line"/>
      <point x="573" y="714"/>
      <point x="598" y="707"/>
      <point x="598" y="682" type="curve" smooth="yes"/>
      <point x="598" y="428" type="line" smooth="yes"/>
      <point x="598" y="425"/>
      <point x="595" y="420"/>
      <point x="590" y="420" type="curve" smooth="yes"/>
      <point x="533" y="418"/>
      <point x="447" y="418"/>
      <point x="385" y="418" type="curve" smooth="yes"/>
      <point x="326" y="418"/>
      <point x="250" y="418"/>
      <point x="196" y="420" type="curve" smooth="yes"/>
      <point x="191" y="420"/>
      <point x="189" y="425"/>
      <point x="189" y="428" type="curve" smooth="yes"/>
      <point x="189" y="454"/>
      <point x="189" y="482"/>
      <point x="189" y="510" type="curve" smooth="yes"/>
      <point x="189" y="682" type="line" smooth="yes"/>
      <point x="189" y="706"/>
      <point x="215" y="715"/>
      <point x="241" y="715" type="curve"/>
      <point x="241" y="730" type="line"/>
      <point x="54" y="730" type="line"/>
      <point x="54" y="714" type="line"/>
      <point x="87" y="714"/>
      <point x="105" y="702"/>
      <point x="106" y="682" type="curve" smooth="yes"/>
      <point x="109" y="608"/>
      <point x="109" y="497"/>
      <point x="109" y="405" type="curve" smooth="yes"/>
      <point x="109" y="286"/>
      <point x="109" y="132"/>
      <point x="106" y="49" type="curve" smooth="yes"/>
      <point x="105" y="20"/>
      <point x="85" y="16"/>
      <point x="54" y="16" type="curve"/>
      <point x="54" y="0" type="line"/>
      <point x="241" y="0" type="line"/>
      <point x="241" y="16" type="line"/>
      <point x="233" y="16"/>
      <point x="225" y="17"/>
      <point x="217" y="18" type="curve" smooth="yes"/>
      <point x="203" y="20"/>
      <point x="189" y="34"/>
      <point x="189" y="47" type="curve" smooth="yes"/>
      <point x="189" y="119"/>
      <point x="189" y="190"/>
      <point x="189" y="262" type="curve" smooth="yes"/>
      <point x="189" y="298"/>
      <point x="189" y="334"/>
      <point x="189" y="370" type="curve" smooth="yes"/>
      <point x="189" y="374"/>
      <point x="191" y="379"/>
      <point x="196" y="379" type="curve" smooth="yes"/>
      <point x="252" y="381"/>
      <point x="327" y="382"/>
      <point x="385" y="382" type="curve" smooth="yes"/>
      <point x="446" y="382"/>
      <point x="535" y="381"/>
      <point x="590" y="379" type="curve" smooth="yes"/>
      <point x="595" y="379"/>
      <point x="598" y="374"/>
      <point x="598" y="370" type="curve" smooth="yes"/>
      <point x="598" y="158" type="line" smooth="yes"/>
      <point x="598" y="1"/>
      <point x="740" y="-13"/>
    </contour>
  </outline>
</glyph>
<glyph name="uni0206" format="1">
  <advance width="566"/>
  <unicode hex="0206"/>
  <outline>
    <contour>
      <point x="200.312" y="779.998" type="curve" smooth="yes"/>
      <point x="213.274" y="779.998"/>
      <point x="218.397" y="795.013"/>
      <point x="225.062" y="805.285" type="curve" smooth="yes"/>
      <point x="233.604" y="818.454"/>
      <point x="247.093" y="843.218"/>
      <point x="286.938" y="843.218" type="curve" smooth="yes"/>
      <point x="339.992" y="843.218"/>
      <point x="350.84" y="818.91"/>
      <point x="373.755" y="790.376" type="curve" smooth="yes"/>
      <point x="378.267" y="784.759"/>
      <point x="382.053" y="780.854"/>
      <point x="388.797" y="780.854" type="curve" smooth="yes"/>
      <point x="400.225" y="780.854"/>
      <point x="402.002" y="786.994"/>
      <point x="402.002" y="793.432" type="curve" smooth="yes"/>
      <point x="402.002" y="831.592"/>
      <point x="351.516" y="900.906"/>
      <point x="279.322" y="900.906" type="curve" smooth="yes"/>
      <point x="218.754" y="900.906"/>
      <point x="184.591" y="840.464"/>
      <point x="184.591" y="796.594" type="curve" smooth="yes"/>
      <point x="184.591" y="787.412"/>
      <point x="190.32" y="779.998"/>
    </contour>
    <component base="E"/>
  </outline>
</glyph>
<glyph name="uni0207" format="1">
  <advance width="515"/>
  <unicode hex="0207"/>
  <outline>
    <contour>
      <point x="221.188" y="570.681" type="curve" smooth="yes"/>
      <point x="230.72" y="570.681"/>
      <point x="234.487" y="583.98"/>
      <point x="239.388" y="593.08" type="curve" smooth="yes"/>
      <point x="245.669" y="604.745"/>
      <point x="255.588" y="626.681"/>
      <point x="284.888" y="626.681" type="curve" smooth="yes"/>
      <point x="323.899" y="626.681"/>
      <point x="331.876" y="605.148"/>
      <point x="348.727" y="579.873" type="curve" smooth="yes"/>
      <point x="352.044" y="574.897"/>
      <point x="354.828" y="571.439"/>
      <point x="359.787" y="571.439" type="curve" smooth="yes"/>
      <point x="368.19" y="571.439"/>
      <point x="369.497" y="576.878"/>
      <point x="369.497" y="582.58" type="curve" smooth="yes"/>
      <point x="369.497" y="616.382"/>
      <point x="332.373" y="677.78"/>
      <point x="279.287" y="677.78" type="curve" smooth="yes"/>
      <point x="234.749" y="677.78"/>
      <point x="209.628" y="624.241"/>
      <point x="209.628" y="585.381" type="curve" smooth="yes"/>
      <point x="209.628" y="577.248"/>
      <point x="213.841" y="570.681"/>
    </contour>
    <component base="e"/>
  </outline>
</glyph>
<glyph name="uni0237" format="1">
  <advance width="248"/>
  <unicode hex="0237"/>
  <outline>
    <contour>
      <point x="-49" y="-154" type="curve" smooth="yes"/>
      <point x="28" y="-154"/>
      <point x="89" y="-111"/>
      <point x="116" y="-84" type="curve" smooth="yes"/>
      <point x="158" y="-42"/>
      <point x="170" y="-7"/>
      <point x="170" y="46" type="curve" smooth="yes"/>
      <point x="170" y="61"/>
      <point x="170" y="76"/>
      <point x="170" y="90" type="curve" smooth="yes"/>
      <point x="170" y="489" type="line" smooth="yes"/>
      <point x="170" y="502"/>
      <point x="169" y="507"/>
      <point x="164" y="507" type="curve" smooth="yes"/>
      <point x="163" y="507"/>
      <point x="158" y="505"/>
      <point x="154" y="504" type="curve" smooth="yes"/>
      <point x="69" y="480" type="line"/>
      <point x="69" y="467" type="line"/>
      <point x="73" y="467"/>
      <point x="78" y="466"/>
      <point x="83" y="465" type="curve" smooth="yes"/>
      <point x="95" y="463"/>
      <point x="103" y="456"/>
      <point x="103" y="438" type="curve" smooth="yes"/>
      <point x="103" y="28" type="line" smooth="yes"/>
      <point x="103" y="-40"/>
      <point x="100" y="-70"/>
      <point x="46" y="-100" type="curve" smooth="yes"/>
      <point x="35" y="-106"/>
      <point x="25" y="-108"/>
      <point x="16" y="-108" type="curve" smooth="yes"/>
      <point x="-15" y="-108"/>
      <point x="-39" y="-83"/>
      <point x="-70" y="-83" type="curve" smooth="yes"/>
      <point x="-96" y="-83"/>
      <point x="-129" y="-105"/>
      <point x="-129" y="-128" type="curve" smooth="yes"/>
      <point x="-129" y="-134"/>
      <point x="-126" y="-139"/>
      <point x="-118" y="-142" type="curve" smooth="yes"/>
      <point x="-94" y="-151"/>
      <point x="-71" y="-154"/>
    </contour>
    <contour>
      <point x="129" y="507" type="move" name="top"/>
    </contour>
  </outline>
</glyph>
<glyph name="caron" format="1">
  <advance width="351"/>
  <unicode hex="02C7"/>
  <outline>
    <contour>
      <point x="173" y="595" type="curve" smooth="yes"/>
      <point x="179" y="595"/>
      <point x="185" y="602"/>
      <point x="188" y="608" type="curve" smooth="yes"/>
      <point x="310" y="823" type="line"/>
      <point x="307" y="832"/>
      <point x="298" y="839"/>
      <point x="293" y="839" type="curve" smooth="yes"/>
      <point x="292" y="839"/>
      <point x="291" y="838"/>
      <point x="290" y="837" type="curve" smooth="yes"/>
      <point x="185" y="700" type="line" smooth="yes"/>
      <point x="182" y="696"/>
      <point x="177" y="694"/>
      <point x="173" y="694" type="curve" smooth="yes"/>
      <point x="169" y="694"/>
      <point x="164" y="696"/>
      <point x="161" y="700" type="curve" smooth="yes"/>
      <point x="56" y="837" type="line" smooth="yes"/>
      <point x="55" y="838"/>
      <point x="54" y="839"/>
      <point x="53" y="839" type="curve" smooth="yes"/>
      <point x="48" y="839"/>
      <point x="38" y="831"/>
      <point x="36" y="823" type="curve"/>
      <point x="159" y="607" type="line" smooth="yes"/>
      <point x="162" y="601"/>
      <point x="168" y="595"/>
    </contour>
    <contour>
      <point x="172" y="507" type="move" name="_top"/>
    </contour>
  </outline>
</glyph>
<glyph name="breve" format="1">
  <advance width="288"/>
  <unicode hex="02D8"/>
  <outline>
    <contour>
      <point x="143" y="587" type="curve" smooth="yes"/>
      <point x="196" y="587"/>
      <point x="234" y="648"/>
      <point x="234" y="682" type="curve" smooth="yes"/>
      <point x="234" y="688"/>
      <point x="232" y="693"/>
      <point x="224" y="693" type="curve" smooth="yes"/>
      <point x="220" y="693"/>
      <point x="216" y="691"/>
      <point x="213" y="685" type="curve" smooth="yes"/>
      <point x="200" y="659"/>
      <point x="188" y="638"/>
      <point x="149" y="638" type="curve" smooth="yes"/>
      <point x="120" y="638"/>
      <point x="109" y="660"/>
      <point x="104" y="672" type="curve" smooth="yes"/>
      <point x="100" y="682"/>
      <point x="95" y="694"/>
      <point x="85" y="694" type="curve" smooth="yes"/>
      <point x="78" y="694"/>
      <point x="74" y="687"/>
      <point x="74" y="679" type="curve" smooth="yes"/>
      <point x="74" y="640"/>
      <point x="99" y="587"/>
    </contour>
    <contour>
      <point x="150" y="507" type="move" name="_top"/>
    </contour>
  </outline>
</glyph>
<glyph name="gravecomb" format="1">
  <advance width="285"/>
  <unicode hex="0300"/>
  <outline>
    <contour>
      <point x="205" y="617" type="curve"/>
      <point x="213" y="617" type="line"/>
      <point x="177" y="669"/>
      <point x="124" y="756"/>
      <point x="109" y="771" type="curve" smooth="yes"/>
      <point x="100" y="780"/>
      <point x="90" y="784"/>
      <point x="78" y="784" type="curve" smooth="yes"/>
      <point x="61" y="784"/>
      <point x="43" y="775"/>
      <point x="40" y="757" type="curve" smooth="yes"/>
      <point x="37" y="741"/>
      <point x="58" y="721"/>
      <point x="71" y="708" type="curve" smooth="yes"/>
      <point x="86" y="693"/>
      <point x="152" y="652"/>
    </contour>
    <contour>
      <point x="147" y="507" type="move" name="_top"/>
    </contour>
  </outline>
</glyph>
<glyph name="tildecomb" format="1">
  <advance width="399"/>
  <unicode hex="0303"/>
  <outline>
    <contour>
      <point x="245" y="583" type="curve" smooth="yes"/>
      <point x="291" y="583"/>
      <point x="340" y="642"/>
      <point x="340" y="659" type="curve" smooth="yes"/>
      <point x="340" y="662"/>
      <point x="337" y="664"/>
      <point x="333" y="664" type="curve" smooth="yes"/>
      <point x="331" y="664"/>
      <point x="328" y="662"/>
      <point x="324" y="659" type="curve" smooth="yes"/>
      <point x="311" y="650"/>
      <point x="282" y="630"/>
      <point x="252" y="630" type="curve" smooth="yes"/>
      <point x="224" y="630"/>
      <point x="207" y="640"/>
      <point x="189" y="653" type="curve" smooth="yes"/>
      <point x="171" y="666"/>
      <point x="154" y="676"/>
      <point x="128" y="676" type="curve" smooth="yes"/>
      <point x="86" y="676"/>
      <point x="40" y="615"/>
      <point x="40" y="610" type="curve" smooth="yes"/>
      <point x="40" y="605"/>
      <point x="43" y="602"/>
      <point x="47" y="602" type="curve" smooth="yes"/>
      <point x="49" y="602"/>
      <point x="55" y="605"/>
      <point x="62" y="609" type="curve" smooth="yes"/>
      <point x="77" y="617"/>
      <point x="103" y="630"/>
      <point x="125" y="630" type="curve" smooth="yes"/>
      <point x="152" y="630"/>
      <point x="168" y="619"/>
      <point x="184" y="607" type="curve" smooth="yes"/>
      <point x="203" y="593"/>
      <point x="218" y="583"/>
    </contour>
    <contour>
      <point x="200" y="507" type="move" name="_top"/>
    </contour>
  </outline>
</glyph>
<glyph name="uni0328" format="1">
  <advance width="214"/>
  <unicode hex="0328"/>
  <outline>
    <contour>
      <point x="115" y="-163" type="curve" smooth="yes"/>
      <point x="143" y="-163"/>
      <point x="188" y="-126"/>
      <point x="188" y="-107" type="curve" smooth="yes"/>
      <point x="188" y="-103"/>
      <point x="187" y="-97"/>
      <point x="181" y="-97" type="curve" smooth="yes"/>
      <point x="177" y="-97"/>
      <point x="175" y="-98"/>
      <point x="172" y="-101" type="curve" smooth="yes"/>
      <point x="166" y="-107"/>
      <point x="157" y="-123"/>
      <point x="135" y="-123" type="curve" smooth="yes"/>
      <point x="113" y="-123"/>
      <point x="100" y="-106"/>
      <point x="100" y="-84" type="curve" smooth="yes"/>
      <point x="100" y="-61"/>
      <point x="112" y="-27"/>
      <point x="147" y="-6" type="curve"/>
      <point x="124" y="-6" type="line"/>
      <point x="79" y="-28"/>
      <point x="54" y="-71"/>
      <point x="54" y="-106" type="curve" smooth="yes"/>
      <point x="54" y="-138"/>
      <point x="73" y="-163"/>
    </contour>
    <contour>
      <point x="250" y="169" type="move" name="_Anchor-1"/>
    </contour>
    <contour>
      <point x="106" y="-12" type="move" name="_bottom"/>
    </contour>
  </outline>
</glyph>
<glyph name="Gamma" format="1">
  <advance width="579"/>
  <unicode hex="0393"/>
  <outline>
    <contour>
      <point x="56" y="0" type="line"/>
      <point x="249" y="0" type="line"/>
      <point x="249" y="16" type="line"/>
      <point x="237" y="16"/>
      <point x="227" y="16"/>
      <point x="216" y="19" type="curve" smooth="yes"/>
      <point x="199" y="24"/>
      <point x="192" y="36"/>
      <point x="191" y="48" type="curve" smooth="yes"/>
      <point x="189" y="67"/>
      <point x="186" y="238"/>
      <point x="186" y="390" type="curve" smooth="yes"/>
      <point x="186" y="509"/>
      <point x="188" y="589"/>
      <point x="191" y="676" type="curve" smooth="yes"/>
      <point x="191" y="689"/>
      <point x="199" y="704"/>
      <point x="219" y="706" type="curve" smooth="yes"/>
      <point x="239" y="708"/>
      <point x="249" y="709"/>
      <point x="269" y="709" type="curve" smooth="yes"/>
      <point x="328" y="709"/>
      <point x="375" y="708"/>
      <point x="416" y="698" type="curve" smooth="yes"/>
      <point x="477" y="683"/>
      <point x="504" y="652"/>
      <point x="517" y="591" type="curve"/>
      <point x="533" y="590" type="line"/>
      <point x="516" y="730" type="line"/>
      <point x="50" y="730" type="line"/>
      <point x="50" y="714" type="line"/>
      <point x="60" y="714"/>
      <point x="71" y="714"/>
      <point x="80" y="712" type="curve" smooth="yes"/>
      <point x="99" y="708"/>
      <point x="107" y="694"/>
      <point x="108" y="681" type="curve" smooth="yes"/>
      <point x="110" y="656"/>
      <point x="111" y="530"/>
      <point x="111" y="396" type="curve" smooth="yes"/>
      <point x="111" y="237"/>
      <point x="110" y="67"/>
      <point x="108" y="48" type="curve" smooth="yes"/>
      <point x="107" y="36"/>
      <point x="99" y="23"/>
      <point x="80" y="18" type="curve" smooth="yes"/>
      <point x="72" y="16"/>
      <point x="64" y="16"/>
      <point x="56" y="16" type="curve"/>
    </contour>
  </outline>
</glyph>
<glyph name="Upsilon" format="1">
  <advance width="753"/>
  <unicode hex="03A5"/>
  <outline>
    <contour>
      <point x="294" y="0" type="line"/>
      <point x="481" y="0" type="line"/>
      <point x="481" y="16" type="line"/>
      <point x="473" y="16"/>
      <point x="463" y="16"/>
      <point x="457" y="18" type="curve" smooth="yes"/>
      <point x="438" y="24"/>
      <point x="429" y="35"/>
      <point x="429" y="49" type="curve" smooth="yes"/>
      <point x="427" y="111"/>
      <point x="427" y="206"/>
      <point x="427" y="257" type="curve" smooth="yes"/>
      <point x="427" y="294"/>
      <point x="427" y="339"/>
      <point x="428" y="367" type="curve" smooth="yes"/>
      <point x="428" y="375"/>
      <point x="428" y="384"/>
      <point x="429" y="392" type="curve" smooth="yes"/>
      <point x="431" y="420"/>
      <point x="432" y="430"/>
      <point x="435" y="449" type="curve" smooth="yes"/>
      <point x="455" y="559"/>
      <point x="503" y="674"/>
      <point x="601" y="674" type="curve" smooth="yes"/>
      <point x="650" y="674"/>
      <point x="699" y="651"/>
      <point x="723" y="629" type="curve"/>
      <point x="727" y="629"/>
      <point x="733" y="630"/>
      <point x="733" y="633" type="curve" smooth="yes"/>
      <point x="733" y="635"/>
      <point x="732" y="642"/>
      <point x="721" y="655" type="curve" smooth="yes"/>
      <point x="708" y="671"/>
      <point x="646" y="730"/>
      <point x="583" y="730" type="curve" smooth="yes"/>
      <point x="456" y="730"/>
      <point x="402" y="580"/>
      <point x="393" y="545" type="curve" smooth="yes"/>
      <point x="392" y="540"/>
      <point x="389" y="532"/>
      <point x="388" y="532" type="curve" smooth="yes"/>
      <point x="387" y="532"/>
      <point x="383" y="540"/>
      <point x="381" y="545" type="curve" smooth="yes"/>
      <point x="359" y="591"/>
      <point x="288" y="730"/>
      <point x="161" y="730" type="curve" smooth="yes"/>
      <point x="100" y="730"/>
      <point x="63" y="696"/>
      <point x="36" y="669" type="curve" smooth="yes"/>
      <point x="32" y="665"/>
      <point x="25" y="657"/>
      <point x="25" y="653" type="curve" smooth="yes"/>
      <point x="25" y="650"/>
      <point x="30" y="648"/>
      <point x="34" y="647" type="curve"/>
      <point x="64" y="670"/>
      <point x="107" y="679"/>
      <point x="148" y="679" type="curve" smooth="yes"/>
      <point x="244" y="679"/>
      <point x="321" y="572"/>
      <point x="341" y="449" type="curve" smooth="yes"/>
      <point x="345" y="423"/>
      <point x="347" y="396"/>
      <point x="348" y="368" type="curve" smooth="yes"/>
      <point x="349" y="339"/>
      <point x="349" y="294"/>
      <point x="349" y="257" type="curve" smooth="yes"/>
      <point x="349" y="206"/>
      <point x="349" y="111"/>
      <point x="347" y="49" type="curve" smooth="yes"/>
      <point x="347" y="35"/>
      <point x="338" y="23"/>
      <point x="318" y="18" type="curve" smooth="yes"/>
      <point x="310" y="16"/>
      <point x="302" y="16"/>
      <point x="294" y="16" type="curve"/>
    </contour>
  </outline>
</glyph>
<glyph name="Phi" format="1">
  <advance width="680"/>
  <unicode hex="03A6"/>
  <outline>
    <contour>
      <point x="253" y="0" type="line"/>
      <point x="440" y="0" type="line"/>
      <point x="440" y="16" type="line"/>
      <point x="432" y="16"/>
      <point x="424" y="17"/>
      <point x="416" y="18" type="curve" smooth="yes"/>
      <point x="397" y="20"/>
      <point x="388" y="36"/>
      <point x="388" y="49" type="curve" smooth="yes"/>
      <point x="388" y="55"/>
      <point x="388" y="66"/>
      <point x="388" y="74" type="curve"/>
      <point x="499" y="95"/>
      <point x="659" y="167"/>
      <point x="659" y="376" type="curve" smooth="yes"/>
      <point x="659" y="553"/>
      <point x="513" y="645"/>
      <point x="387" y="662" type="curve"/>
      <point x="387" y="668"/>
      <point x="387" y="678"/>
      <point x="388" y="686" type="curve" smooth="yes"/>
      <point x="390" y="699"/>
      <point x="397" y="707"/>
      <point x="416" y="712" type="curve" smooth="yes"/>
      <point x="424" y="714"/>
      <point x="432" y="714"/>
      <point x="440" y="714" type="curve"/>
      <point x="440" y="730" type="line"/>
      <point x="253" y="730" type="line"/>
      <point x="253" y="714" type="line"/>
      <point x="261" y="714"/>
      <point x="269" y="714"/>
      <point x="277" y="712" type="curve" smooth="yes"/>
      <point x="296" y="707"/>
      <point x="304" y="697"/>
      <point x="305" y="685" type="curve" smooth="yes"/>
      <point x="305" y="682"/>
      <point x="305" y="666"/>
      <point x="305" y="663" type="curve"/>
      <point x="173" y="650"/>
      <point x="22" y="555"/>
      <point x="22" y="369" type="curve" smooth="yes"/>
      <point x="22" y="149"/>
      <point x="210" y="82"/>
      <point x="305" y="71" type="curve"/>
      <point x="305" y="64"/>
      <point x="305" y="54"/>
      <point x="305" y="49" type="curve" smooth="yes"/>
      <point x="305" y="36"/>
      <point x="296" y="23"/>
      <point x="277" y="18" type="curve" smooth="yes"/>
      <point x="269" y="16"/>
      <point x="261" y="16"/>
      <point x="253" y="16" type="curve"/>
    </contour>
    <contour>
      <point x="306" y="105" type="curve"/>
      <point x="191" y="124"/>
      <point x="123" y="234"/>
      <point x="123" y="383" type="curve" smooth="yes"/>
      <point x="123" y="457"/>
      <point x="160" y="599"/>
      <point x="306" y="628" type="curve"/>
      <point x="307" y="597"/>
      <point x="307" y="476"/>
      <point x="307" y="405" type="curve" smooth="yes"/>
      <point x="307" y="316"/>
      <point x="307" y="136"/>
    </contour>
    <contour>
      <point x="387" y="106" type="curve"/>
      <point x="386" y="136"/>
      <point x="385" y="316"/>
      <point x="385" y="405" type="curve" smooth="yes"/>
      <point x="385" y="475"/>
      <point x="385" y="597"/>
      <point x="386" y="625" type="curve"/>
      <point x="502" y="600"/>
      <point x="558" y="493"/>
      <point x="558" y="388" type="curve" smooth="yes"/>
      <point x="558" y="234"/>
      <point x="520" y="136"/>
    </contour>
  </outline>
</glyph>
<glyph name="Psi" format="1">
  <advance width="307"/>
  <unicode hex="03A8"/>
  <outline>
    <contour>
      <point x="54" y="0" type="line"/>
      <point x="241" y="0" type="line"/>
      <point x="241" y="16" type="line"/>
      <point x="233" y="16"/>
      <point x="225" y="17"/>
      <point x="217" y="18" type="curve" smooth="yes"/>
      <point x="198" y="20"/>
      <point x="189" y="36"/>
      <point x="189" y="49" type="curve" smooth="yes"/>
      <point x="187" y="103"/>
      <point x="186" y="234"/>
      <point x="186" y="324" type="curve" smooth="yes"/>
      <point x="186" y="326"/>
      <point x="188" y="328"/>
      <point x="190" y="328" type="curve" smooth="yes"/>
      <point x="214" y="328"/>
      <point x="226" y="330"/>
      <point x="269" y="357" type="curve" smooth="yes"/>
      <point x="316" y="387"/>
      <point x="350" y="463"/>
      <point x="362" y="497" type="curve" smooth="yes"/>
      <point x="377" y="539"/>
      <point x="381" y="549"/>
      <point x="399" y="594" type="curve" smooth="yes"/>
      <point x="404" y="606"/>
      <point x="417" y="626"/>
      <point x="435" y="626" type="curve" smooth="yes"/>
      <point x="454" y="626"/>
      <point x="468" y="615"/>
      <point x="475" y="605" type="curve"/>
      <point x="488" y="616" type="line"/>
      <point x="480" y="650"/>
      <point x="461" y="676"/>
      <point x="408" y="676" type="curve" smooth="yes"/>
      <point x="351" y="676"/>
      <point x="326" y="616"/>
      <point x="291" y="483" type="curve" smooth="yes"/>
      <point x="276" y="428"/>
      <point x="254" y="359"/>
      <point x="190" y="359" type="curve" smooth="yes"/>
      <point x="187" y="359"/>
      <point x="187" y="360"/>
      <point x="187" y="364" type="curve" smooth="yes"/>
      <point x="187" y="377"/>
      <point x="187" y="391"/>
      <point x="187" y="404" type="curve" smooth="yes"/>
      <point x="187" y="452"/>
      <point x="187" y="497"/>
      <point x="187" y="543" type="curve" smooth="yes"/>
      <point x="187" y="589"/>
      <point x="187" y="635"/>
      <point x="189" y="683" type="curve" smooth="yes"/>
      <point x="190" y="696"/>
      <point x="198" y="707"/>
      <point x="217" y="712" type="curve" smooth="yes"/>
      <point x="225" y="714"/>
      <point x="233" y="714"/>
      <point x="241" y="714" type="curve"/>
      <point x="241" y="730" type="line"/>
      <point x="54" y="730" type="line"/>
      <point x="54" y="714" type="line"/>
      <point x="62" y="714"/>
      <point x="70" y="714"/>
      <point x="78" y="712" type="curve" smooth="yes"/>
      <point x="97" y="707"/>
      <point x="105" y="695"/>
      <point x="106" y="682" type="curve" smooth="yes"/>
      <point x="108" y="634"/>
      <point x="108" y="589"/>
      <point x="108" y="543" type="curve" smooth="yes"/>
      <point x="108" y="498"/>
      <point x="108" y="452"/>
      <point x="108" y="404" type="curve" smooth="yes"/>
      <point x="108" y="391"/>
      <point x="108" y="378"/>
      <point x="108" y="364" type="curve" smooth="yes"/>
      <point x="108" y="361"/>
      <point x="107" y="360"/>
      <point x="105" y="360" type="curve" smooth="yes"/>
      <point x="50" y="374"/>
      <point x="11" y="456"/>
      <point x="-5" y="518" type="curve" smooth="yes"/>
      <point x="-25" y="596"/>
      <point x="-48" y="677"/>
      <point x="-111" y="677" type="curve" smooth="yes"/>
      <point x="-164" y="677"/>
      <point x="-183" y="651"/>
      <point x="-191" y="617" type="curve"/>
      <point x="-178" y="606" type="line"/>
      <point x="-170" y="615"/>
      <point x="-157" y="626"/>
      <point x="-138" y="626" type="curve" smooth="yes"/>
      <point x="-119" y="626"/>
      <point x="-108" y="607"/>
      <point x="-103" y="595" type="curve" smooth="yes"/>
      <point x="-86" y="553"/>
      <point x="-80" y="538"/>
      <point x="-65" y="497" type="curve" smooth="yes"/>
      <point x="-52" y="463"/>
      <point x="-20" y="388"/>
      <point x="27" y="357" type="curve" smooth="yes"/>
      <point x="70" y="329"/>
      <point x="79" y="328"/>
      <point x="103" y="328" type="curve" smooth="yes"/>
      <point x="106" y="328"/>
      <point x="108" y="326"/>
      <point x="108" y="323" type="curve" smooth="yes"/>
      <point x="108" y="234"/>
      <point x="108" y="103"/>
      <point x="106" y="49" type="curve" smooth="yes"/>
      <point x="106" y="36"/>
      <point x="97" y="23"/>
      <point x="78" y="18" type="curve" smooth="yes"/>
      <point x="70" y="16"/>
      <point x="62" y="16"/>
      <point x="54" y="16" type="curve"/>
    </contour>
  </outline>
</glyph>
<glyph name="uni03A9" format="1">
  <advance width="826"/>
  <unicode hex="03A9"/>
  <outline>
    <contour>
      <point x="88" y="0" type="line"/>
      <point x="345" y="0" type="line" smooth="yes"/>
      <point x="353" y="0"/>
      <point x="358" y="7"/>
      <point x="358" y="13" type="curve" smooth="yes"/>
      <point x="358" y="25"/>
      <point x="350" y="56"/>
      <point x="338" y="70" type="curve" smooth="yes"/>
      <point x="284" y="133"/>
      <point x="194" y="207"/>
      <point x="194" y="395" type="curve" smooth="yes"/>
      <point x="194" y="531"/>
      <point x="239" y="701"/>
      <point x="417" y="701" type="curve" smooth="yes"/>
      <point x="596" y="701"/>
      <point x="640" y="531"/>
      <point x="640" y="395" type="curve" smooth="yes"/>
      <point x="640" y="207"/>
      <point x="549" y="126"/>
      <point x="494" y="65" type="curve" smooth="yes"/>
      <point x="483" y="53"/>
      <point x="477" y="25"/>
      <point x="477" y="13" type="curve" smooth="yes"/>
      <point x="477" y="7"/>
      <point x="483" y="0"/>
      <point x="490" y="0" type="curve" smooth="yes"/>
      <point x="747" y="0" type="line"/>
      <point x="784" y="132" type="line"/>
      <point x="765" y="134" type="line"/>
      <point x="751" y="81"/>
      <point x="714" y="87"/>
      <point x="668" y="83" type="curve"/>
      <point x="660" y="83"/>
      <point x="623" y="82"/>
      <point x="617" y="82" type="curve" smooth="yes"/>
      <point x="610" y="82"/>
      <point x="603" y="83"/>
      <point x="596" y="83" type="curve"/>
      <point x="645" y="138"/>
      <point x="739" y="259"/>
      <point x="739" y="378" type="curve" smooth="yes"/>
      <point x="739" y="617"/>
      <point x="572" y="736"/>
      <point x="417" y="736" type="curve" smooth="yes"/>
      <point x="263" y="736"/>
      <point x="96" y="617"/>
      <point x="96" y="378" type="curve" smooth="yes"/>
      <point x="96" y="259"/>
      <point x="189" y="138"/>
      <point x="238" y="83" type="curve"/>
      <point x="231" y="83"/>
      <point x="225" y="82"/>
      <point x="218" y="82" type="curve" smooth="yes"/>
      <point x="211" y="82"/>
      <point x="164" y="83"/>
      <point x="157" y="83" type="curve"/>
      <point x="111" y="87"/>
      <point x="83" y="81"/>
      <point x="70" y="134" type="curve"/>
      <point x="51" y="132" type="line"/>
    </contour>
  </outline>
</glyph>
<glyph name="eta" format="1">
  <advance width="546"/>
  <unicode hex="03B7"/>
  <outline>
    <contour>
      <point x="435" y="-241" type="curve" smooth="yes"/>
      <point x="447" y="-241"/>
      <point x="458" y="-230"/>
      <point x="458" y="-206" type="curve" smooth="yes"/>
      <point x="458" y="-66"/>
      <point x="456" y="169"/>
      <point x="451" y="306" type="curve" smooth="yes"/>
      <point x="446" y="437"/>
      <point x="422" y="517"/>
      <point x="377" y="517" type="curve" smooth="yes"/>
      <point x="307" y="517"/>
      <point x="263" y="417"/>
      <point x="227" y="333" type="curve" smooth="yes"/>
      <point x="219" y="314"/>
      <point x="211" y="297"/>
      <point x="203" y="281" type="curve" smooth="yes"/>
      <point x="202" y="279"/>
      <point x="200" y="276"/>
      <point x="198" y="276" type="curve" smooth="yes"/>
      <point x="196" y="276"/>
      <point x="195" y="280"/>
      <point x="195" y="282" type="curve" smooth="yes"/>
      <point x="195" y="310"/>
      <point x="196" y="334"/>
      <point x="197" y="356" type="curve" smooth="yes"/>
      <point x="198" y="371"/>
      <point x="198" y="385"/>
      <point x="198" y="399" type="curve" smooth="yes"/>
      <point x="198" y="470"/>
      <point x="165" y="518"/>
      <point x="95" y="518" type="curve" smooth="yes"/>
      <point x="41" y="518"/>
      <point x="16" y="482"/>
      <point x="16" y="468" type="curve" smooth="yes"/>
      <point x="16" y="458"/>
      <point x="25" y="452"/>
      <point x="33" y="452" type="curve" smooth="yes"/>
      <point x="37" y="452"/>
      <point x="42" y="455"/>
      <point x="47" y="458" type="curve" smooth="yes"/>
      <point x="52" y="461"/>
      <point x="60" y="465"/>
      <point x="70" y="465" type="curve" smooth="yes"/>
      <point x="123" y="465"/>
      <point x="158" y="423"/>
      <point x="158" y="342" type="curve" smooth="yes"/>
      <point x="158" y="295"/>
      <point x="154" y="236"/>
      <point x="143" y="185" type="curve" smooth="yes"/>
      <point x="133" y="140"/>
      <point x="122" y="63"/>
      <point x="122" y="51" type="curve" smooth="yes"/>
      <point x="122" y="38"/>
      <point x="129" y="0"/>
      <point x="160" y="0" type="curve" smooth="yes"/>
      <point x="176" y="0"/>
      <point x="182" y="15"/>
      <point x="186" y="32" type="curve" smooth="yes"/>
      <point x="219" y="173"/>
      <point x="296" y="411"/>
      <point x="353" y="411" type="curve" smooth="yes"/>
      <point x="389" y="411"/>
      <point x="408" y="392"/>
      <point x="408" y="311" type="curve" smooth="yes"/>
      <point x="408" y="272"/>
      <point x="399" y="0"/>
      <point x="382" y="-112" type="curve" smooth="yes"/>
      <point x="378" y="-137"/>
      <point x="374" y="-154"/>
      <point x="371" y="-166" type="curve" smooth="yes"/>
      <point x="369" y="-174"/>
      <point x="368" y="-181"/>
      <point x="368" y="-189" type="curve" smooth="yes"/>
      <point x="368" y="-209"/>
      <point x="420" y="-241"/>
    </contour>
  </outline>
</glyph>
<glyph name="uni03BC" format="1">
  <advance width="636"/>
  <unicode hex="03BC"/>
  <outline>
    <contour>
      <point x="147" y="-255" type="curve" smooth="yes"/>
      <point x="163" y="-255"/>
      <point x="175" y="-232"/>
      <point x="175" y="-203" type="curve" smooth="yes"/>
      <point x="175" y="-194"/>
      <point x="156" y="-148"/>
      <point x="143" y="-119" type="curve" smooth="yes"/>
      <point x="126" y="-80"/>
      <point x="114" y="-42"/>
      <point x="114" y="9" type="curve" smooth="yes"/>
      <point x="114" y="23"/>
      <point x="114" y="40"/>
      <point x="116" y="56" type="curve" smooth="yes"/>
      <point x="117" y="64"/>
      <point x="118" y="71"/>
      <point x="124" y="71" type="curve" smooth="yes"/>
      <point x="128" y="71"/>
      <point x="134" y="69"/>
      <point x="137" y="64" type="curve" smooth="yes"/>
      <point x="166" y="19"/>
      <point x="207" y="-6"/>
      <point x="265" y="-6" type="curve" smooth="yes"/>
      <point x="331" y="-6"/>
      <point x="386" y="62"/>
      <point x="405" y="120" type="curve"/>
      <point x="405" y="46"/>
      <point x="448" y="-7"/>
      <point x="512" y="-7" type="curve" smooth="yes"/>
      <point x="566" y="-7"/>
      <point x="591" y="43"/>
      <point x="591" y="63" type="curve" smooth="yes"/>
      <point x="591" y="73"/>
      <point x="582" y="79"/>
      <point x="574" y="79" type="curve" smooth="yes"/>
      <point x="570" y="79"/>
      <point x="565" y="76"/>
      <point x="560" y="73" type="curve" smooth="yes"/>
      <point x="554" y="69"/>
      <point x="547" y="66"/>
      <point x="537" y="66" type="curve" smooth="yes"/>
      <point x="490" y="66"/>
      <point x="459" y="101"/>
      <point x="459" y="169" type="curve" smooth="yes"/>
      <point x="459" y="216"/>
      <point x="472" y="272"/>
      <point x="485" y="326" type="curve" smooth="yes"/>
      <point x="496" y="371"/>
      <point x="506" y="448"/>
      <point x="506" y="460" type="curve" smooth="yes"/>
      <point x="506" y="473"/>
      <point x="499" y="511"/>
      <point x="468" y="511" type="curve" smooth="yes"/>
      <point x="446" y="511"/>
      <point x="439" y="503"/>
      <point x="432" y="492" type="curve" smooth="yes"/>
      <point x="426" y="483"/>
      <point x="423" y="476"/>
      <point x="423" y="462" type="curve" smooth="yes"/>
      <point x="423" y="445"/>
      <point x="423" y="427"/>
      <point x="424" y="408" type="curve" smooth="yes"/>
      <point x="425" y="391"/>
      <point x="425" y="374"/>
      <point x="425" y="357" type="curve" smooth="yes"/>
      <point x="425" y="317"/>
      <point x="414" y="277"/>
      <point x="402" y="234" type="curve" smooth="yes"/>
      <point x="379" y="153"/>
      <point x="275" y="70"/>
      <point x="219" y="70" type="curve" smooth="yes"/>
      <point x="156" y="70"/>
      <point x="123" y="95"/>
      <point x="123" y="200" type="curve" smooth="yes"/>
      <point x="123" y="212"/>
      <point x="134" y="299"/>
      <point x="139" y="338" type="curve" smooth="yes"/>
      <point x="144" y="375"/>
      <point x="148" y="428"/>
      <point x="148" y="460" type="curve" smooth="yes"/>
      <point x="148" y="480"/>
      <point x="133" y="512"/>
      <point x="103" y="512" type="curve" smooth="yes"/>
      <point x="59" y="512"/>
      <point x="52" y="440"/>
      <point x="52" y="393" type="curve" smooth="yes"/>
      <point x="52" y="365"/>
      <point x="54" y="339"/>
      <point x="58" y="311" type="curve" smooth="yes"/>
      <point x="61" y="287"/>
      <point x="63" y="262"/>
      <point x="65" y="232" type="curve" smooth="yes"/>
      <point x="67" y="193"/>
      <point x="69" y="158"/>
      <point x="71" y="134" type="curve" smooth="yes"/>
      <point x="73" y="114"/>
      <point x="75" y="79"/>
      <point x="75" y="56" type="curve" smooth="yes"/>
      <point x="75" y="4"/>
      <point x="75" y="-110"/>
      <point x="78" y="-160" type="curve" smooth="yes"/>
      <point x="83" y="-246"/>
      <point x="124" y="-255"/>
    </contour>
  </outline>
</glyph>
<glyph name="rho" format="1">
  <advance width="516"/>
  <unicode hex="03C1"/>
  <outline>
    <contour>
      <point x="127" y="-239" type="curve" smooth="yes"/>
      <point x="138" y="-239"/>
      <point x="144" y="-233"/>
      <point x="144" y="-223" type="curve" smooth="yes"/>
      <point x="144" y="-217"/>
      <point x="140" y="-193"/>
      <point x="134" y="-164" type="curve" smooth="yes"/>
      <point x="128" y="-133"/>
      <point x="121" y="-96"/>
      <point x="117" y="-66" type="curve" smooth="yes"/>
      <point x="108" y="0"/>
      <point x="108" y="33"/>
      <point x="108" y="57" type="curve"/>
      <point x="108" y="58"/>
      <point x="109" y="59"/>
      <point x="110" y="59" type="curve"/>
      <point x="111" y="59"/>
      <point x="111" y="58"/>
      <point x="111" y="57" type="curve"/>
      <point x="111" y="-1"/>
      <point x="187" y="-11"/>
      <point x="226" y="-11" type="curve" smooth="yes"/>
      <point x="342" y="-11"/>
      <point x="451" y="98"/>
      <point x="451" y="246" type="curve" smooth="yes"/>
      <point x="451" y="434"/>
      <point x="353" y="507"/>
      <point x="250" y="507" type="curve" smooth="yes"/>
      <point x="158" y="507"/>
      <point x="43" y="426"/>
      <point x="43" y="270" type="curve" smooth="yes"/>
      <point x="43" y="269"/>
      <point x="43" y="267"/>
      <point x="43" y="266" type="curve" smooth="yes"/>
      <point x="43" y="189"/>
      <point x="45" y="82"/>
      <point x="48" y="-10" type="curve" smooth="yes"/>
      <point x="48" y="-24"/>
      <point x="48" y="-93"/>
      <point x="49" y="-119" type="curve" smooth="yes"/>
      <point x="50" y="-148"/>
      <point x="52" y="-184"/>
      <point x="59" y="-199" type="curve" smooth="yes"/>
      <point x="70" y="-224"/>
      <point x="109" y="-239"/>
    </contour>
    <contour>
      <point x="196" y="76" type="curve" smooth="yes"/>
      <point x="144" y="76"/>
      <point x="100" y="127"/>
      <point x="100" y="172" type="curve" smooth="yes"/>
      <point x="100" y="364"/>
      <point x="204" y="430"/>
      <point x="276" y="430" type="curve" smooth="yes"/>
      <point x="338" y="430"/>
      <point x="408" y="355"/>
      <point x="408" y="291" type="curve" smooth="yes"/>
      <point x="408" y="177"/>
      <point x="358" y="76"/>
    </contour>
    <contour>
      <point x="43" y="189" type="move"/>
    </contour>
  </outline>
</glyph>
<glyph name="uni2011" format="1">
  <advance width="403"/>
  <unicode hex="2011"/>
  <outline>
    <contour>
      <point x="68" y="276" type="line"/>
      <point x="336" y="276" type="line"/>
      <point x="336" y="320" type="line"/>
      <point x="68" y="320" type="line"/>
    </contour>
  </outline>
</glyph>
<glyph name="uni2016" format="1">
  <advance width="293"/>
  <unicode hex="2016"/>
  <outline>
    <contour>
      <point x="199" y="-111" type="curve" smooth="yes"/>
      <point x="211" y="-111"/>
      <point x="224" y="-106"/>
      <point x="224" y="-102" type="curve"/>
      <point x="224" y="732" type="line"/>
      <point x="224" y="738"/>
      <point x="215" y="738"/>
      <point x="204" y="738" type="curve" smooth="yes"/>
      <point x="193" y="738"/>
      <point x="182" y="734"/>
      <point x="180" y="728" type="curve"/>
      <point x="180" y="-106" type="line"/>
      <point x="180" y="-111"/>
      <point x="189" y="-111"/>
    </contour>
    <contour>
      <point x="82" y="-111" type="curve" smooth="yes"/>
      <point x="94" y="-111"/>
      <point x="107" y="-106"/>
      <point x="107" y="-102" type="curve"/>
      <point x="107" y="732" type="line"/>
      <point x="107" y="738"/>
      <point x="98" y="738"/>
      <point x="87" y="738" type="curve" smooth="yes"/>
      <point x="76" y="738"/>
      <point x="65" y="734"/>
      <point x="63" y="728" type="curve"/>
      <point x="63" y="-106" type="line"/>
      <point x="63" y="-111"/>
      <point x="72" y="-111"/>
    </contour>
  </outline>
</glyph>
<glyph name="uni2023" format="1">
  <advance width="512"/>
  <unicode hex="2023"/>
  <outline>
    <contour>
      <point x="68" y="200" type="curve" smooth="yes"/>
      <point x="92" y="200"/>
      <point x="196" y="280"/>
      <point x="196" y="296" type="curve" smooth="yes"/>
      <point x="196" y="320"/>
      <point x="92" y="392"/>
      <point x="68" y="392" type="curve" smooth="yes"/>
      <point x="61" y="392"/>
      <point x="58" y="345"/>
      <point x="58" y="298" type="curve" smooth="yes"/>
      <point x="58" y="249"/>
      <point x="61" y="200"/>
    </contour>
  </outline>
</glyph>
<glyph name="uni204B" format="1">
  <advance width="391"/>
  <unicode hex="204B"/>
  <outline>
    <contour>
      <point x="73" y="-10" type="curve"/>
      <point x="99" y="-10" type="line"/>
      <point x="99" y="710" type="line"/>
      <point x="139" y="710" type="line"/>
      <point x="139" y="-10" type="line"/>
      <point x="166" y="-10" type="line"/>
      <point x="165" y="20"/>
      <point x="163" y="128"/>
      <point x="163" y="228" type="curve" smooth="yes"/>
      <point x="163" y="302"/>
      <point x="163" y="372"/>
      <point x="164" y="401" type="curve"/>
      <point x="187" y="400"/>
      <point x="211" y="399"/>
      <point x="223" y="399" type="curve" smooth="yes"/>
      <point x="292" y="399"/>
      <point x="351" y="468"/>
      <point x="351" y="575" type="curve" smooth="yes"/>
      <point x="351" y="669"/>
      <point x="273" y="740"/>
      <point x="193" y="740" type="curve" smooth="yes"/>
      <point x="188" y="740"/>
      <point x="176" y="740"/>
      <point x="163" y="740" type="curve" smooth="yes"/>
      <point x="21" y="740" type="line"/>
      <point x="21" y="714" type="line"/>
      <point x="29" y="714"/>
      <point x="37" y="714"/>
      <point x="45" y="712" type="curve" smooth="yes"/>
      <point x="64" y="707"/>
      <point x="72" y="696"/>
      <point x="73" y="683" type="curve" smooth="yes"/>
      <point x="76" y="619"/>
      <point x="76" y="490"/>
      <point x="76" y="394" type="curve" smooth="yes"/>
      <point x="76" y="279"/>
      <point x="76" y="55"/>
    </contour>
  </outline>
</glyph>
<glyph name="franc" format="1">
  <advance width="579"/>
  <unicode hex="20A3"/>
  <outline>
    <contour>
      <point x="170" y="308" type="curve" smooth="yes"/>
      <point x="170" y="326" type="line" smooth="yes"/>
      <point x="170" y="347"/>
      <point x="170" y="368"/>
      <point x="170" y="385" type="curve" smooth="yes"/>
      <point x="170" y="403" type="line" smooth="yes"/>
      <point x="170" y="457"/>
      <point x="172" y="529"/>
      <point x="174" y="591" type="curve" smooth="yes"/>
      <point x="174" y="605"/>
      <point x="181" y="616"/>
      <point x="198" y="618" type="curve" smooth="yes"/>
      <point x="216" y="620"/>
      <point x="225" y="621"/>
      <point x="242" y="621" type="curve" smooth="yes"/>
      <point x="294" y="621"/>
      <point x="335" y="620"/>
      <point x="371" y="611" type="curve" smooth="yes"/>
      <point x="424" y="598"/>
      <point x="448" y="570"/>
      <point x="459" y="517" type="curve"/>
      <point x="473" y="517" type="line"/>
      <point x="459" y="639" type="line"/>
      <point x="51" y="639" type="line"/>
      <point x="51" y="625" type="line"/>
      <point x="60" y="625"/>
      <point x="69" y="625"/>
      <point x="77" y="623" type="curve" smooth="yes"/>
      <point x="94" y="619"/>
      <point x="101" y="608"/>
      <point x="102" y="597" type="curve" smooth="yes"/>
      <point x="103" y="578"/>
      <point x="104" y="495"/>
      <point x="104" y="398" type="curve" smooth="yes"/>
      <point x="104" y="381" type="line" smooth="yes"/>
      <point x="104" y="377"/>
      <point x="104" y="348"/>
      <point x="104" y="324" type="curve" smooth="yes"/>
      <point x="104" y="311" type="line" smooth="yes"/>
      <point x="104" y="227"/>
      <point x="103" y="57"/>
      <point x="102" y="42" type="curve" smooth="yes"/>
      <point x="101" y="31"/>
      <point x="94" y="18"/>
      <point x="77" y="16" type="curve" smooth="yes"/>
      <point x="70" y="15"/>
      <point x="63" y="14"/>
      <point x="56" y="14" type="curve"/>
      <point x="56" y="0" type="line"/>
      <point x="225" y="0" type="line"/>
      <point x="225" y="14" type="line"/>
      <point x="214" y="14"/>
      <point x="206" y="14"/>
      <point x="196" y="17" type="curve" smooth="yes"/>
      <point x="182" y="21"/>
      <point x="175" y="31"/>
      <point x="174" y="42" type="curve" smooth="yes"/>
      <point x="172" y="57"/>
      <point x="170" y="251"/>
    </contour>
    <contour>
      <point x="112" y="378" type="line"/>
      <point x="112" y="410" type="line"/>
      <point x="55" y="410" type="line"/>
      <point x="55" y="378" type="line"/>
    </contour>
    <contour>
      <point x="162" y="410" type="line"/>
      <point x="162" y="378" type="line"/>
      <point x="404" y="378" type="line"/>
      <point x="404" y="410" type="line"/>
    </contour>
    <contour>
      <point x="112" y="303" type="line"/>
      <point x="112" y="335" type="line"/>
      <point x="55" y="335" type="line"/>
      <point x="55" y="303" type="line"/>
    </contour>
    <contour>
      <point x="162" y="335" type="line"/>
      <point x="162" y="303" type="line"/>
      <point x="404" y="303" type="line"/>
      <point x="404" y="335" type="line"/>
    </contour>
  </outline>
</glyph>
<glyph name="euro" format="1">
  <advance width="544"/>
  <unicode hex="20AC"/>
  <outline>
    <contour>
      <point x="154" y="346" type="curve"/>
      <point x="155" y="376" type="line"/>
      <point x="162" y="463"/>
      <point x="195" y="612"/>
      <point x="336" y="612" type="curve" smooth="yes"/>
      <point x="371" y="612"/>
      <point x="403" y="605"/>
      <point x="428" y="591" type="curve" smooth="yes"/>
      <point x="458" y="574"/>
      <point x="468" y="533"/>
      <point x="468" y="520" type="curve"/>
      <point x="480" y="520" type="line"/>
      <point x="510" y="579" type="line"/>
      <point x="465" y="626"/>
      <point x="405" y="643"/>
      <point x="346" y="643" type="curve" smooth="yes"/>
      <point x="341" y="643" type="line" smooth="yes"/>
      <point x="180" y="643"/>
      <point x="94" y="494"/>
      <point x="85" y="370" type="curve" smooth="yes"/>
      <point x="83" y="349"/>
      <point x="82" y="334"/>
      <point x="82" y="316" type="curve" smooth="yes"/>
      <point x="82" y="230"/>
      <point x="97" y="159"/>
      <point x="133" y="102" type="curve" smooth="yes"/>
      <point x="177" y="33"/>
      <point x="252" y="-8"/>
      <point x="332" y="-8" type="curve"/>
      <point x="386" y="-8"/>
      <point x="458" y="14"/>
      <point x="507" y="61" type="curve"/>
      <point x="507" y="95" type="line"/>
      <point x="464" y="53"/>
      <point x="413" y="30"/>
      <point x="353" y="30" type="curve" smooth="yes"/>
      <point x="316" y="30"/>
      <point x="238" y="34"/>
      <point x="191" y="131" type="curve" smooth="yes"/>
      <point x="174" y="167"/>
      <point x="161" y="215"/>
      <point x="155" y="281" type="curve" smooth="yes"/>
      <point x="153" y="300"/>
      <point x="153" y="300"/>
      <point x="153" y="307" type="curve" smooth="yes"/>
      <point x="153" y="312"/>
      <point x="153" y="319"/>
      <point x="153" y="337" type="curve" smooth="yes"/>
      <point x="153" y="340"/>
      <point x="153" y="346"/>
    </contour>
    <contour>
      <point x="92" y="346" type="line"/>
      <point x="96" y="383" type="line"/>
      <point x="48" y="383" type="line"/>
      <point x="29" y="346" type="line"/>
    </contour>
    <contour>
      <point x="93" y="262" type="line"/>
      <point x="91" y="299" type="line"/>
      <point x="51" y="299" type="line"/>
      <point x="32" y="262" type="line"/>
    </contour>
    <contour>
      <point x="144" y="299" type="line"/>
      <point x="148" y="262" type="line"/>
      <point x="358" y="262" type="line"/>
      <point x="378" y="299" type="line"/>
    </contour>
    <contour>
      <point x="147" y="383" type="line"/>
      <point x="147" y="346" type="line"/>
      <point x="401" y="346" type="line"/>
      <point x="420" y="383" type="line"/>
    </contour>
  </outline>
</glyph>
<glyph name="uni2157" format="1">
  <advance width="555"/>
  <unicode hex="2157"/>
  <outline>
    <contour>
      <point x="110" y="-10" type="line"/>
      <point x="139" y="-10" type="line"/>
      <point x="449" y="644" type="line"/>
      <point x="420" y="644" type="line"/>
    </contour>
    <contour>
      <point x="98" y="314" type="curve" smooth="yes"/>
      <point x="166" y="314"/>
      <point x="206" y="349"/>
      <point x="206" y="404" type="curve" smooth="yes"/>
      <point x="206" y="447"/>
      <point x="168" y="480"/>
      <point x="126" y="484" type="curve"/>
      <point x="153" y="503"/>
      <point x="183" y="527"/>
      <point x="183" y="552" type="curve" smooth="yes"/>
      <point x="183" y="580"/>
      <point x="161" y="597"/>
      <point x="117" y="597" type="curve" smooth="yes"/>
      <point x="66" y="597"/>
      <point x="36" y="551"/>
      <point x="35" y="549" type="curve"/>
      <point x="45" y="542" type="line"/>
      <point x="60" y="562"/>
      <point x="84" y="577"/>
      <point x="108" y="577" type="curve" smooth="yes"/>
      <point x="129" y="577"/>
      <point x="147" y="563"/>
      <point x="147" y="543" type="curve" smooth="yes"/>
      <point x="147" y="511"/>
      <point x="62" y="453"/>
      <point x="60" y="452" type="curve"/>
      <point x="60" y="452"/>
      <point x="57" y="450"/>
      <point x="57" y="447" type="curve" smooth="yes"/>
      <point x="57" y="444"/>
      <point x="60" y="442"/>
      <point x="64" y="442" type="curve" smooth="yes"/>
      <point x="70" y="442"/>
      <point x="88" y="452"/>
      <point x="105" y="452" type="curve" smooth="yes"/>
      <point x="118" y="452"/>
      <point x="131" y="451"/>
      <point x="144" y="447" type="curve"/>
      <point x="163" y="439"/>
      <point x="174" y="415"/>
      <point x="174" y="393" type="curve" smooth="yes"/>
      <point x="174" y="357"/>
      <point x="141" y="326"/>
      <point x="98" y="326" type="curve" smooth="yes"/>
      <point x="84" y="326"/>
      <point x="69" y="335"/>
      <point x="60" y="341" type="curve"/>
      <point x="55" y="345"/>
      <point x="49" y="347"/>
      <point x="44" y="347" type="curve" smooth="yes"/>
      <point x="37" y="347"/>
      <point x="33" y="344"/>
      <point x="33" y="341" type="curve" smooth="yes"/>
      <point x="33" y="340" type="line"/>
      <point x="33" y="340" type="line" smooth="yes"/>
      <point x="32" y="339"/>
      <point x="32" y="338"/>
      <point x="32" y="337" type="curve" smooth="yes"/>
      <point x="32" y="323"/>
      <point x="71" y="314"/>
    </contour>
    <contour>
      <point x="425" y="60" type="curve" smooth="yes"/>
      <point x="484" y="60"/>
      <point x="525" y="106"/>
      <point x="525" y="154" type="curve" smooth="yes"/>
      <point x="525" y="209"/>
      <point x="487" y="242"/>
      <point x="434" y="242" type="curve" smooth="yes"/>
      <point x="415" y="242"/>
      <point x="395" y="237"/>
      <point x="375" y="228" type="curve"/>
      <point x="393" y="305" type="line"/>
      <point x="517" y="305" type="line"/>
      <point x="519" y="312"/>
      <point x="523" y="323"/>
      <point x="523" y="327" type="curve" smooth="yes"/>
      <point x="523" y="332"/>
      <point x="518" y="333"/>
      <point x="515" y="333" type="curve" smooth="yes"/>
      <point x="507" y="333"/>
      <point x="498" y="330"/>
      <point x="488" y="330" type="curve" smooth="yes"/>
      <point x="384" y="330" type="line"/>
      <point x="348" y="185" type="line"/>
      <point x="373" y="200"/>
      <point x="404" y="210"/>
      <point x="426" y="210" type="curve" smooth="yes"/>
      <point x="472" y="210"/>
      <point x="494" y="180"/>
      <point x="494" y="146" type="curve" smooth="yes"/>
      <point x="494" y="117"/>
      <point x="469" y="77"/>
      <point x="422" y="77" type="curve" smooth="yes"/>
      <point x="404" y="77"/>
      <point x="373" y="82"/>
      <point x="360" y="95" type="curve"/>
      <point x="358" y="97"/>
      <point x="357" y="97"/>
      <point x="355" y="97" type="curve" smooth="yes"/>
      <point x="353" y="97"/>
      <point x="351" y="95"/>
      <point x="351" y="92" type="curve" smooth="yes"/>
      <point x="351" y="90"/>
      <point x="351" y="88"/>
      <point x="353" y="87" type="curve"/>
      <point x="375" y="64"/>
      <point x="404" y="60"/>
    </contour>
  </outline>
</glyph>
<glyph name="threeeighths" format="1">
  <advance width="555"/>
  <unicode hex="215C"/>
  <outline>
    <contour>
      <point x="110" y="-10" type="line"/>
      <point x="139" y="-10" type="line"/>
      <point x="449" y="644" type="line"/>
      <point x="420" y="644" type="line"/>
    </contour>
    <contour>
      <point x="432" y="71" type="curve" smooth="yes"/>
      <point x="399" y="71"/>
      <point x="377" y="94"/>
      <point x="377" y="130" type="curve" smooth="yes"/>
      <point x="377" y="161"/>
      <point x="391" y="177"/>
      <point x="424" y="204" type="curve"/>
      <point x="457" y="184"/>
      <point x="488" y="156"/>
      <point x="488" y="128" type="curve" smooth="yes"/>
      <point x="488" y="101"/>
      <point x="465" y="71"/>
    </contour>
    <contour>
      <point x="108" y="314" type="curve" smooth="yes"/>
      <point x="176" y="314"/>
      <point x="216" y="349"/>
      <point x="216" y="404" type="curve" smooth="yes"/>
      <point x="216" y="447"/>
      <point x="178" y="480"/>
      <point x="136" y="484" type="curve"/>
      <point x="163" y="503"/>
      <point x="193" y="527"/>
      <point x="193" y="552" type="curve" smooth="yes"/>
      <point x="193" y="580"/>
      <point x="171" y="597"/>
      <point x="127" y="597" type="curve" smooth="yes"/>
      <point x="76" y="597"/>
      <point x="46" y="551"/>
      <point x="45" y="549" type="curve"/>
      <point x="55" y="542" type="line"/>
      <point x="70" y="562"/>
      <point x="94" y="577"/>
      <point x="118" y="577" type="curve" smooth="yes"/>
      <point x="139" y="577"/>
      <point x="157" y="563"/>
      <point x="157" y="543" type="curve" smooth="yes"/>
      <point x="157" y="511"/>
      <point x="72" y="453"/>
      <point x="70" y="452" type="curve"/>
      <point x="70" y="452"/>
      <point x="67" y="450"/>
      <point x="67" y="447" type="curve" smooth="yes"/>
      <point x="67" y="444"/>
      <point x="70" y="442"/>
      <point x="74" y="442" type="curve" smooth="yes"/>
      <point x="80" y="442"/>
      <point x="98" y="452"/>
      <point x="115" y="452" type="curve" smooth="yes"/>
      <point x="128" y="452"/>
      <point x="141" y="451"/>
      <point x="154" y="447" type="curve"/>
      <point x="173" y="439"/>
      <point x="184" y="415"/>
      <point x="184" y="393" type="curve" smooth="yes"/>
      <point x="184" y="357"/>
      <point x="151" y="326"/>
      <point x="108" y="326" type="curve" smooth="yes"/>
      <point x="94" y="326"/>
      <point x="79" y="335"/>
      <point x="70" y="341" type="curve"/>
      <point x="65" y="345"/>
      <point x="59" y="347"/>
      <point x="54" y="347" type="curve" smooth="yes"/>
      <point x="47" y="347"/>
      <point x="43" y="344"/>
      <point x="43" y="341" type="curve" smooth="yes"/>
      <point x="43" y="340" type="line"/>
      <point x="43" y="340" type="line" smooth="yes"/>
      <point x="42" y="339"/>
      <point x="42" y="338"/>
      <point x="42" y="337" type="curve" smooth="yes"/>
      <point x="42" y="323"/>
      <point x="81" y="314"/>
    </contour>
    <contour>
      <point x="432" y="59" type="curve" smooth="yes"/>
      <point x="484" y="59"/>
      <point x="520" y="96"/>
      <point x="520" y="127" type="curve" smooth="yes"/>
      <point x="520" y="171"/>
      <point x="488" y="197"/>
      <point x="452" y="223" type="curve"/>
      <point x="472" y="238"/>
      <point x="506" y="259"/>
      <point x="506" y="287" type="curve" smooth="yes"/>
      <point x="506" y="319"/>
      <point x="471" y="344"/>
      <point x="432" y="344" type="curve" smooth="yes"/>
      <point x="372" y="344"/>
      <point x="356" y="309"/>
      <point x="356" y="289" type="curve" smooth="yes"/>
      <point x="356" y="250"/>
      <point x="378" y="231"/>
      <point x="404" y="211" type="curve"/>
      <point x="370" y="185"/>
      <point x="342" y="163"/>
      <point x="342" y="128" type="curve" smooth="yes"/>
      <point x="342" y="85"/>
      <point x="388" y="59"/>
    </contour>
    <contour>
      <point x="434" y="234" type="curve"/>
      <point x="409" y="250"/>
      <point x="388" y="257"/>
      <point x="388" y="287" type="curve" smooth="yes"/>
      <point x="388" y="306"/>
      <point x="395" y="333"/>
      <point x="432" y="333" type="curve" smooth="yes"/>
      <point x="461" y="333"/>
      <point x="478" y="306"/>
      <point x="478" y="286" type="curve" smooth="yes"/>
      <point x="478" y="267"/>
      <point x="451" y="249"/>
    </contour>
  </outline>
</glyph>
<glyph name="uniFB04" format="1">
  <advance width="824"/>
  <unicode hex="FB04"/>
  <outline>
    <contour>
      <point x="646" y="-1" type="line"/>
      <point x="785" y="-1" type="line"/>
      <point x="785" y="15" type="line"/>
      <point x="779" y="15"/>
      <point x="773" y="15"/>
      <point x="768" y="16" type="curve" smooth="yes"/>
      <point x="755" y="19"/>
      <point x="749" y="27"/>
      <point x="749" y="36" type="curve" smooth="yes"/>
      <point x="749" y="744" type="line" smooth="yes"/>
      <point x="749" y="756"/>
      <point x="748" y="761"/>
      <point x="743" y="761" type="curve" smooth="yes"/>
      <point x="742" y="761"/>
      <point x="741" y="761"/>
      <point x="740" y="761" type="curve" smooth="yes"/>
      <point x="675" y="742" type="line"/>
      <point x="651" y="754"/>
      <point x="627" y="757"/>
      <point x="604" y="757" type="curve" smooth="yes"/>
      <point x="520" y="757"/>
      <point x="451" y="730"/>
      <point x="417" y="674" type="curve"/>
      <point x="386" y="714"/>
      <point x="324" y="728"/>
      <point x="280" y="728" type="curve" smooth="yes"/>
      <point x="180" y="728"/>
      <point x="94" y="660"/>
      <point x="94" y="543" type="curve" smooth="yes"/>
      <point x="94" y="530"/>
      <point x="93" y="515"/>
      <point x="93" y="501" type="curve"/>
      <point x="45" y="501" type="line"/>
      <point x="37" y="465" type="line"/>
      <point x="37" y="465"/>
      <point x="64" y="469"/>
      <point x="93" y="469" type="curve"/>
      <point x="93" y="37" type="line" smooth="yes"/>
      <point x="93" y="28"/>
      <point x="87" y="19"/>
      <point x="74" y="17" type="curve" smooth="yes"/>
      <point x="68" y="16"/>
      <point x="63" y="16"/>
      <point x="57" y="16" type="curve"/>
      <point x="57" y="0" type="line"/>
      <point x="197" y="0" type="line"/>
      <point x="197" y="16" type="line"/>
      <point x="191" y="16"/>
      <point x="186" y="16"/>
      <point x="180" y="17" type="curve" smooth="yes"/>
      <point x="167" y="19"/>
      <point x="161" y="28"/>
      <point x="161" y="37" type="curve" smooth="yes"/>
      <point x="161" y="469" type="line"/>
      <point x="193" y="469"/>
      <point x="323" y="469"/>
      <point x="386" y="469" type="curve"/>
      <point x="386" y="37" type="line" smooth="yes"/>
      <point x="386" y="28"/>
      <point x="380" y="19"/>
      <point x="367" y="17" type="curve" smooth="yes"/>
      <point x="361" y="16"/>
      <point x="356" y="16"/>
      <point x="350" y="16" type="curve"/>
      <point x="350" y="0" type="line"/>
      <point x="491" y="0" type="line"/>
      <point x="491" y="16" type="line"/>
      <point x="485" y="16"/>
      <point x="480" y="16"/>
      <point x="474" y="17" type="curve" smooth="yes"/>
      <point x="461" y="19"/>
      <point x="455" y="28"/>
      <point x="455" y="37" type="curve" smooth="yes"/>
      <point x="455" y="469" type="line"/>
      <point x="497" y="469"/>
      <point x="594" y="467"/>
      <point x="600" y="467" type="curve"/>
      <point x="604" y="479" type="line" smooth="yes"/>
      <point x="605" y="483"/>
      <point x="606" y="487"/>
      <point x="606" y="490" type="curve" smooth="yes"/>
      <point x="606" y="499"/>
      <point x="600" y="505"/>
      <point x="579" y="505" type="curve" smooth="yes"/>
      <point x="567" y="505"/>
      <point x="447" y="505"/>
      <point x="447" y="505" type="curve"/>
      <point x="447" y="541" type="line" smooth="yes"/>
      <point x="447" y="548"/>
      <point x="446" y="556"/>
      <point x="446" y="563" type="curve" smooth="yes"/>
      <point x="446" y="666"/>
      <point x="503" y="736"/>
      <point x="577" y="736" type="curve" smooth="yes"/>
      <point x="638" y="736"/>
      <point x="664" y="701"/>
      <point x="682" y="668" type="curve"/>
      <point x="682" y="36" type="line" smooth="yes"/>
      <point x="682" y="27"/>
      <point x="675" y="18"/>
      <point x="663" y="16" type="curve" smooth="yes"/>
      <point x="657" y="15"/>
      <point x="651" y="15"/>
      <point x="646" y="15" type="curve"/>
    </contour>
    <contour>
      <point x="153" y="505" type="line"/>
      <point x="153" y="514" type="line"/>
      <point x="153" y="538" type="line" smooth="yes"/>
      <point x="153" y="641"/>
      <point x="209" y="711"/>
      <point x="283" y="711" type="curve" smooth="yes"/>
      <point x="352" y="711"/>
      <point x="387" y="641"/>
      <point x="392" y="611" type="curve"/>
      <point x="390" y="598"/>
      <point x="387" y="584"/>
      <point x="387" y="568" type="curve" smooth="yes"/>
      <point x="387" y="559"/>
      <point x="386" y="546"/>
      <point x="386" y="537" type="curve" smooth="yes"/>
      <point x="386" y="505" type="line"/>
    </contour>
  </outline>
</glyph>
<glyph name="uniFB06" format="1">
  <advance width="761"/>
  <unicode hex="FB06"/>
  <outline>
    <contour>
      <point x="196" y="-10" type="curve" smooth="yes"/>
      <point x="286" y="-10"/>
      <point x="359" y="58"/>
      <point x="359" y="141" type="curve" smooth="yes"/>
      <point x="359" y="203"/>
      <point x="300" y="244"/>
      <point x="247" y="281" type="curve" smooth="yes"/>
      <point x="210" y="307"/>
      <point x="127" y="352"/>
      <point x="127" y="406" type="curve" smooth="yes"/>
      <point x="127" y="443"/>
      <point x="158" y="489"/>
      <point x="219" y="489" type="curve" smooth="yes"/>
      <point x="288" y="489"/>
      <point x="305" y="417"/>
      <point x="312" y="417" type="curve" smooth="yes"/>
      <point x="318" y="417"/>
      <point x="334" y="461"/>
      <point x="334" y="472" type="curve" smooth="yes"/>
      <point x="334" y="474"/>
      <point x="332" y="475"/>
      <point x="330" y="479" type="curve" smooth="yes"/>
      <point x="318" y="503"/>
      <point x="312" y="527"/>
      <point x="312" y="551" type="curve" smooth="yes"/>
      <point x="312" y="627"/>
      <point x="372" y="683"/>
      <point x="449" y="683" type="curve" smooth="yes"/>
      <point x="510" y="683"/>
      <point x="575" y="651"/>
      <point x="575" y="598" type="curve" smooth="yes"/>
      <point x="575" y="525"/>
      <point x="489" y="508"/>
      <point x="477" y="501" type="curve" smooth="yes"/>
      <point x="470" y="497"/>
      <point x="458" y="493"/>
      <point x="456" y="489" type="curve" smooth="yes"/>
      <point x="455" y="487"/>
      <point x="454" y="486"/>
      <point x="454" y="484" type="curve" smooth="yes"/>
      <point x="454" y="481"/>
      <point x="455" y="478"/>
      <point x="458" y="477" type="curve" smooth="yes"/>
      <point x="463" y="475"/>
      <point x="505" y="476"/>
      <point x="511" y="475" type="curve" smooth="yes"/>
      <point x="523" y="473"/>
      <point x="530" y="465"/>
      <point x="530" y="447" type="curve" smooth="yes"/>
      <point x="530" y="163" type="line"/>
      <point x="530" y="163" type="line"/>
      <point x="530" y="106"/>
      <point x="538" y="50"/>
      <point x="566" y="22" type="curve" smooth="yes"/>
      <point x="589" y="-1"/>
      <point x="614" y="-10"/>
      <point x="642" y="-10" type="curve" smooth="yes"/>
      <point x="660" y="-10"/>
      <point x="678" y="-7"/>
      <point x="696" y="-1" type="curve"/>
      <point x="688" y="29" type="line"/>
      <point x="680" y="28"/>
      <point x="672" y="27"/>
      <point x="665" y="27" type="curve" smooth="yes"/>
      <point x="635" y="27"/>
      <point x="617" y="41"/>
      <point x="605" y="76" type="curve" smooth="yes"/>
      <point x="599" y="94"/>
      <point x="599" y="135"/>
      <point x="599" y="161" type="curve" smooth="yes"/>
      <point x="599" y="298" type="line"/>
      <point x="599" y="471" type="line"/>
      <point x="605" y="472"/>
      <point x="613" y="472"/>
      <point x="620" y="472" type="curve" smooth="yes"/>
      <point x="660" y="472"/>
      <point x="706" y="471"/>
      <point x="714" y="471" type="curve" smooth="yes"/>
      <point x="714" y="471"/>
      <point x="715" y="471"/>
      <point x="715" y="471" type="curve" smooth="yes"/>
      <point x="719" y="488" type="line" smooth="yes"/>
      <point x="720" y="493"/>
      <point x="720" y="496"/>
      <point x="720" y="499" type="curve" smooth="yes"/>
      <point x="720" y="507"/>
      <point x="716" y="511"/>
      <point x="697" y="511" type="curve" smooth="yes"/>
      <point x="685" y="511"/>
      <point x="635" y="510"/>
      <point x="599" y="510" type="curve"/>
      <point x="599" y="530"/>
      <point x="599" y="577"/>
      <point x="599" y="598" type="curve" smooth="yes"/>
      <point x="599" y="601"/>
      <point x="598" y="632"/>
      <point x="596" y="639" type="curve" smooth="yes"/>
      <point x="583" y="686"/>
      <point x="528" y="723"/>
      <point x="453" y="723" type="curve" smooth="yes"/>
      <point x="365" y="723"/>
      <point x="292" y="658"/>
      <point x="292" y="566" type="curve" smooth="yes"/>
      <point x="292" y="543"/>
      <point x="296" y="518"/>
      <point x="307" y="493" type="curve"/>
      <point x="284" y="502"/>
      <point x="250" y="511"/>
      <point x="216" y="511" type="curve" smooth="yes"/>
      <point x="123" y="511"/>
      <point x="65" y="443"/>
      <point x="65" y="375" type="curve" smooth="yes"/>
      <point x="65" y="310"/>
      <point x="149" y="262"/>
      <point x="191" y="232" type="curve" smooth="yes"/>
      <point x="236" y="200"/>
      <point x="299" y="161"/>
      <point x="299" y="108" type="curve" smooth="yes"/>
      <point x="299" y="53"/>
      <point x="249" y="17"/>
      <point x="193" y="17" type="curve" smooth="yes"/>
      <point x="105" y="17"/>
      <point x="78" y="85"/>
      <point x="78" y="120" type="curve" smooth="yes"/>
      <point x="78" y="122"/>
      <point x="77" y="124"/>
      <point x="75" y="124" type="curve" smooth="yes"/>
      <point x="65" y="124"/>
      <point x="31" y="89"/>
      <point x="31" y="76" type="curve" smooth="yes"/>
      <point x="31" y="49"/>
      <point x="85" y="-10"/>
    </contour>
  </outline>
</glyph>
